<svg width="174" height="36" viewBox="0 0 174 36" fill="none"
  xmlns="http://www.w3.org/2000/svg">
  <path d="M18.8011 0C15.241 0 11.7609 1.05568 8.80083 3.03355C5.84075 5.01141 3.53364 7.82263 2.17126 11.1117C0.808885 14.4008 0.452426 18.02 1.14696 21.5116C1.84149 25.0033 3.55583 28.2106 6.07317 30.7279C8.59052 33.2453 11.7978 34.9596 15.2895 35.6541C18.7811 36.3487 22.4003 35.9922 25.6894 34.6298C28.9785 33.2675 31.7897 30.9603 33.7675 28.0003C35.7454 25.0402 36.8011 21.5601 36.8011 18C36.8011 15.6362 36.3355 13.2956 35.4309 11.1117C34.5263 8.92784 33.2005 6.94353 31.529 5.27208C29.8576 3.60062 27.8733 2.27475 25.6894 1.37017C23.5055 0.465584 21.1649 0 18.8011 0ZM18.8011 2.07C22.849 2.0771 26.7425 3.62396 29.6917 6.39667C32.6408 9.16938 34.4246 12.9602 34.6811 17C31.5081 17.1983 28.4442 18.2333 25.8011 20C25.146 15.4344 22.9136 11.242 19.4911 8.15L18.8011 7.52L18.1111 8.15C14.6899 11.2431 12.4578 15.4349 11.8011 20C9.1493 18.2283 6.07442 17.193 2.8911 17C3.14791 12.9551 4.93593 9.15989 7.89145 6.38642C10.847 3.61294 14.748 2.06948 18.8011 2.07ZM23.8911 21.47C21.5782 23.5033 19.8257 26.0959 18.8011 29C17.7765 26.0959 16.024 23.5033 13.7111 21.47L13.8411 20.54C14.3497 16.6883 16.1059 13.1092 18.8411 10.35C21.5763 13.1092 23.3325 16.6883 23.8411 20.54L23.8911 21.47ZM2.8911 19.09C6.72967 19.3487 10.345 20.9878 13.0691 23.7045C15.7932 26.4213 17.4421 30.0321 17.7111 33.87C13.8796 33.6021 10.274 31.9589 7.55808 29.243C4.84221 26.5271 3.19901 22.9215 2.9311 19.09H2.8911ZM19.8911 33.87C20.159 30.0385 21.8022 26.4329 24.5181 23.717C27.234 21.0011 30.8396 19.3579 34.6711 19.09C34.4032 22.9215 32.76 26.5271 30.0441 29.243C27.3282 31.9589 23.7226 33.6021 19.8911 33.87Z" fill="white"/>
  <path d="M140.399 18.1C140.206 17.9684 140.006 17.8482 139.799 17.74C140.465 17.2058 141.004 16.5305 141.378 15.7627C141.751 14.9949 141.95 14.1538 141.959 13.3C141.956 12.3924 141.739 11.4982 141.325 10.6902C140.912 9.88228 140.313 9.18326 139.579 8.65C138.604 7.91586 137.419 7.51289 136.199 7.5H128.019V28.5H137.019C138.219 28.4974 139.388 28.1159 140.359 27.41C140.898 27.029 141.366 26.5549 141.739 26.01C142.397 25.0576 142.749 23.9275 142.749 22.77C142.749 21.6125 142.397 20.4824 141.739 19.53C141.375 18.9821 140.922 18.4988 140.399 18.1ZM130.069 9.58H136.199C136.985 9.57396 137.753 9.81852 138.391 10.2782C139.028 10.7379 139.503 11.3889 139.746 12.1366C139.989 12.8844 139.988 13.6901 139.742 14.4369C139.496 15.1837 139.019 15.8328 138.379 16.29C137.751 16.7637 136.986 17.02 136.199 17.02H130.069V9.58ZM140.069 24.82C139.73 25.3042 139.282 25.7015 138.761 25.9795C138.239 26.2576 137.66 26.4085 137.069 26.42H130.069V19.06H137.069C137.838 19.0633 138.586 19.3082 139.209 19.76C139.994 20.3159 140.528 21.1593 140.695 22.1069C140.862 23.0545 140.647 24.0295 140.099 24.82H140.069Z" fill="white"/>
  <path d="M112.119 7.77002H110.069V28.23H112.119V7.77002Z" fill="white"/>
  <path d="M170.579 7.52979L163.589 16.2898L156.579 7.52979H153.959L162.569 18.2898V28.2298H164.619V18.2898L173.199 7.52979H170.579Z" fill="white"/>
  <path d="M56.1988 7.5L47.1989 28.5H49.4289L51.8489 22.84H62.1089L64.5289 28.5H66.7589L57.7889 7.5H56.1988ZM52.7288 20.76L56.9788 10.83L61.1988 20.76H52.7288Z" fill="white"/>
  <path d="M93.4888 18.1C93.2988 17.97 93.0988 17.85 92.8988 17.74C93.5636 17.2053 94.1014 16.5297 94.4732 15.7618C94.845 14.994 95.0416 14.1531 95.0488 13.3C95.0458 12.3924 94.8287 11.4982 94.4152 10.6902C94.0016 9.88228 93.4033 9.18326 92.6688 8.65C91.691 7.91384 90.5028 7.51076 89.2788 7.5H81.1088V28.5H90.1088C91.3092 28.4974 92.478 28.1159 93.4488 27.41C93.9883 27.029 94.4556 26.5549 94.8288 26.01C95.4868 25.0576 95.8392 23.9275 95.8392 22.77C95.8392 21.6125 95.4868 20.4824 94.8288 19.53C94.4649 18.9821 94.012 18.4988 93.4888 18.1ZM83.1988 9.58H89.3188C90.105 9.57396 90.8727 9.81852 91.5106 10.2782C92.1484 10.7379 92.6233 11.3889 92.8662 12.1366C93.1091 12.8844 93.1076 13.6901 92.8617 14.4369C92.6158 15.1837 92.1385 15.8328 91.4988 16.29C90.8708 16.7637 90.1055 17.02 89.3188 17.02H83.1988V9.58ZM93.1988 24.82C92.8602 25.3042 92.4119 25.7015 91.8906 25.9795C91.3692 26.2576 90.7896 26.4085 90.1988 26.42H83.1988V19.06H90.1988C90.9679 19.0633 91.7165 19.3082 92.3388 19.76C93.1193 20.3204 93.6474 21.166 93.8084 22.1133C93.9694 23.0606 93.7504 24.0332 93.1988 24.82Z" fill="white"/>
</svg>
  