<svg width="108" height="59" viewBox="0 0 108 59" fill="none"
  xmlns="http://www.w3.org/2000/svg">
  <g clip-path="url(#clip0_30_422)">
    <path d="M17.2338 25.1369V24.8576H13.2933C11.4389 24.8576 10.0636 25.0439 9.16731 25.4162C8.30193 25.7577 7.86925 26.518 7.86925 27.6973C7.86925 29.4663 9.1055 30.3507 11.578 30.3507C13.6487 30.3507 15.1013 29.9162 15.9357 29.0473C16.8011 28.1473 17.2338 26.8438 17.2338 25.1369ZM10.0481 35.4712C7.14296 35.4712 4.99498 34.7575 3.6042 33.3299C2.21342 31.8714 1.51804 29.9938 1.51804 27.6973C1.51804 24.9353 2.41431 22.9492 4.20687 21.7388C5.99942 20.4974 8.73463 19.8768 12.4125 19.8768H17.2338V18.8527C17.2338 16.5561 15.7812 15.4078 12.876 15.4078C10.2799 15.4078 8.8428 16.4009 8.56464 18.3871H2.07434C2.29068 15.9975 3.27969 13.9959 5.04134 12.3821C6.80299 10.7683 9.46092 9.96143 13.0151 9.96143C16.5384 9.96143 19.1964 10.7528 20.9889 12.3355C22.7815 13.9183 23.6778 16.1527 23.6778 19.0389V34.9126H17.8365V32.2127C16.4458 34.3851 13.8496 35.4712 10.0481 35.4712Z" fill="white"/>
    <path d="M38.4743 29.2339V34.8666C37.8253 34.9596 37.1453 35.0062 36.4345 35.0062C33.8693 35.0062 32.0458 34.4632 30.9641 33.3769C29.8824 32.2597 29.3415 30.4753 29.3415 28.0236V0H35.9245V27.5581C35.9245 28.1478 36.0327 28.5822 36.249 28.8615C36.4654 29.1409 36.9135 29.2804 37.5934 29.2804C37.748 29.2804 37.9179 29.2804 38.1033 29.2804C38.3198 29.2494 38.4434 29.2339 38.4743 29.2339Z" fill="white"/>
    <path d="M64.4891 21.0406V34.9126H57.906V20.4354C57.906 17.2388 56.608 15.6406 54.0119 15.6406C52.4975 15.6406 51.323 16.1062 50.4886 17.0371C49.6851 17.9682 49.2832 19.256 49.2832 20.9009V34.9126H42.7002V10.52H48.7733V13.4993C50.0405 11.1407 52.3738 9.96143 55.7735 9.96143C58.9877 9.96143 61.3367 11.1097 62.8201 13.4062C64.8909 11.1097 67.5796 9.96143 70.8867 9.96143C73.7301 9.96143 75.9089 10.8459 77.4234 12.6149C78.9376 14.3838 79.6949 16.7424 79.6949 19.6906V34.9126H73.1118V20.4354C73.1118 17.2388 71.8138 15.6406 69.2177 15.6406C67.6724 15.6406 66.4979 16.1216 65.6944 17.0837C64.8909 18.0148 64.4891 19.3336 64.4891 21.0406Z" fill="white"/>
    <path d="M99.947 25.1369V24.8576H96.0064C94.1521 24.8576 92.7768 25.0439 91.8805 25.4162C91.0151 25.7577 90.5825 26.518 90.5825 27.6973C90.5825 29.4663 91.8187 30.3507 94.2912 30.3507C96.3618 30.3507 97.8145 29.9162 98.6489 29.0473C99.5143 28.1473 99.947 26.8438 99.947 25.1369ZM92.7613 35.4712C89.8561 35.4712 87.7082 34.7575 86.3174 33.3299C84.9266 31.8714 84.2312 29.9938 84.2312 27.6973C84.2312 24.9353 85.1275 22.9492 86.9201 21.7388C88.7125 20.4974 91.4478 19.8768 95.1256 19.8768H99.947V18.8527C99.947 16.5561 98.4944 15.4078 95.5892 15.4078C92.9931 15.4078 91.556 16.4009 91.2778 18.3871H84.7875C85.0038 15.9975 85.9929 13.9959 87.7545 12.3821C89.5162 10.7683 92.1741 9.96143 95.7283 9.96143C99.2516 9.96143 101.91 10.7528 103.702 12.3355C105.495 13.9183 106.391 16.1527 106.391 19.0389V34.9126H100.55V32.2127C99.1589 34.3851 96.5628 35.4712 92.7613 35.4712Z" fill="white"/>
    <path d="M107.958 50.8945H6.10352e-05V58.6058H107.958V50.8945Z" fill="white"/>
  </g>
  <defs>
    <clipPath id="clip0_30_422">
      <rect width="107.957" height="59" fill="white"/>
    </clipPath>
  </defs>
</svg>
  