<svg width="185" height="28" viewBox="0 0 185 28" fill="none"
  xmlns="http://www.w3.org/2000/svg">
  <path d="M7.27782 13.1632H4.05782V18.6448H7.27782C8.88889 18.6448 10.067 17.5 10.067 15.8878C10.067 14.2778 8.88889 13.1632 7.27782 13.1632ZM4.05782 4.55215V9.41446H7.27782C8.73382 9.41446 9.75689 8.45492 9.75689 7C9.75689 5.544 8.67243 4.55215 7.27782 4.55215H4.05782ZM7.27782 22.4237H-3.05176e-05V0.773231H7.21751C10.8715 0.773231 13.7824 3.5 13.7824 7.03015C13.7824 8.764 13.0717 10.1888 11.831 11.2118C13.287 12.2963 14.154 13.9063 14.154 15.8577C14.154 19.6054 11.088 22.4237 7.27782 22.4237ZM30.4446 7.154L26.3243 16.8495L22.05 7.154H17.8069L24.1866 21.8045L21.5546 28H25.7363L34.595 7.154H30.4446ZM52.9889 4.64585V9.69446H56.8292C58.3154 9.69446 59.431 8.67138 59.431 7.18523C59.431 5.69908 58.3164 4.64585 56.8292 4.64585H52.9889ZM59.8963 22.4237L52.9889 13.3485V22.4237H48.931V0.773231H56.8604C60.5467 0.773231 63.5815 3.56138 63.5815 7.18523C63.5815 10.4375 61.166 13.0394 57.9761 13.4723L64.82 22.4237H59.8963ZM76.5261 10.4074C75.2855 10.4074 74.2323 10.8414 73.3966 11.6771C72.5609 12.5138 72.1581 13.5358 72.1581 14.8055C72.1581 16.0763 72.5609 17.0972 73.3966 17.9329C74.2323 18.7697 75.2855 19.1725 76.525 19.1725C77.7646 19.1725 78.7866 18.7697 79.6223 17.934C80.459 17.0972 80.8607 16.044 80.8607 14.8055C80.8607 12.2963 78.9417 10.4074 76.525 10.4074H76.5261ZM76.5261 6.59723C81.0169 6.50354 85.0123 10.3772 84.9186 14.8055C85.0123 19.2349 81.0169 23.0763 76.525 22.9826C71.9718 23.0752 68.0389 19.2349 68.1315 14.8055C68.0378 10.3762 71.9718 6.50354 76.525 6.59723H76.5261ZM98.1421 10.8091H95.3852V22.4237H91.3597V10.8091H88.8504V7.154H91.3597V0.773231H95.3863V7.154H98.1432V10.8091H98.1421ZM110.221 10.4375C107.804 10.4375 105.946 12.3577 105.946 14.8055C105.946 16.044 106.347 17.066 107.153 17.9017C107.99 18.7385 109.012 19.1402 110.221 19.1402C112.605 19.1402 114.464 17.22 114.464 14.8055C114.464 12.3577 112.605 10.4375 110.221 10.4375ZM118.242 7.154V22.4248H114.464V20.0082C113.256 21.7732 111.459 22.7952 109.198 22.7952C105.016 22.7952 101.918 19.2338 101.918 14.8045C101.918 10.3751 105.016 6.78246 109.198 6.78246C111.459 6.78246 113.256 7.83569 114.464 9.60185V7.154H118.242ZM133.013 10.8091H130.258V22.4237H126.23V10.8091H123.722V7.154H126.23V0.773231H130.258V7.154H133.013V10.8091ZM138.493 7.154H142.551V22.4248H138.493V7.15292V7.154ZM140.506 0C141.839 0 142.923 1.022 142.923 2.35415C142.923 3.68523 141.839 4.70723 140.506 4.70723C139.175 4.70723 138.091 3.68415 138.091 2.35415C138.091 1.022 139.175 0 140.506 0ZM156.146 10.4074C154.907 10.4074 153.854 10.8414 153.018 11.6771C152.182 12.5138 151.778 13.5358 151.778 14.8055C151.778 16.0763 152.182 17.0972 153.018 17.9329C153.854 18.7697 154.907 19.1725 156.146 19.1725C157.385 19.1725 158.407 18.7697 159.244 17.934C160.079 17.0972 160.483 16.044 160.483 14.8055C160.483 12.2963 158.562 10.4074 156.146 10.4074ZM156.146 6.59723C160.638 6.50354 164.632 10.3772 164.54 14.8055C164.632 19.2349 160.638 23.0763 156.146 22.9826C151.593 23.0752 147.659 19.2349 147.753 14.8055C147.659 10.3762 151.593 6.50354 156.146 6.59723ZM184.05 22.4237H180.023V13.8126C180.023 11.8311 178.754 10.5603 176.927 10.5603C175.16 10.5603 173.828 11.8612 173.828 13.8126V22.4237H169.772V7.154H173.519V9.91092C174.355 7.95954 176.09 6.78246 178.289 6.78246C181.604 6.78246 184.05 9.35308 184.05 12.8832V22.4248V22.4237Z" fill="white"/>
</svg>
  