<svg width="182" height="48" viewBox="0 0 182 48" fill="none"
  xmlns="http://www.w3.org/2000/svg">
  <path d="M0.111115 24.411C0.111115 16.7562 5.57256 12.0509 14.3055 12.0509H23.347V0.828613H34.663V36.0828H14.2633C5.57242 36.0828 0.111115 31.5601 0.111115 24.411ZM12.0498 24.0317C12.0498 26.9672 13.8269 28.4982 17.241 28.4982H23.2861V19.5091H17.2972C13.8827 19.5091 12.0498 21.0541 12.0498 24.0317ZM107.84 24.0177C107.84 31.6725 102.378 36.3777 93.6455 36.3777H84.604V47.6H73.288V12.3459H93.6877C102.379 12.3459 107.84 16.8685 107.84 24.0177ZM95.9012 24.3969C95.9012 21.4614 94.122 19.9305 90.7034 19.9305H84.6649V28.9196H90.6613C94.08 28.9196 95.9012 27.3746 95.9012 24.3969ZM182 24.0177C182 31.6725 176.539 36.3777 167.806 36.3777H158.764V47.6H147.448V12.3459H167.848C176.539 12.3459 182 16.8685 182 24.0177ZM170.061 24.3969C170.061 21.4614 168.282 19.9305 164.864 19.9305H158.825V28.9196H164.821C168.24 28.9196 170.061 27.3746 170.061 24.3969ZM111.211 24.2284C111.211 15.6612 118.065 11.0818 127.504 11.0818C136.942 11.0818 143.796 15.6612 143.796 24.2284C143.796 32.7951 136.942 37.4873 127.504 37.4873C118.065 37.4733 111.211 32.7951 111.211 24.2284ZM132.7 24.0949C132.7 19.9188 130.608 17.8236 127.433 17.8236C124.259 17.8236 122.166 19.9188 122.166 24.0949C122.166 28.2148 124.259 30.4646 127.433 30.4646C130.622 30.4505 132.7 28.2148 132.7 24.0949ZM69.4958 24.6936C69.4958 16.1267 63.9857 10.9414 54.0314 10.9414C44.4695 10.9414 38.3148 16.1267 38.3148 24.2427C38.3148 32.4576 44.4136 37.3468 54.5781 37.3468C60.9716 37.3468 66.1309 34.9515 68.8508 31.0625L60.7471 28.1035C59.3451 29.6394 57.228 30.4848 54.9989 30.4848C51.648 30.4848 49.3207 29.1322 48.7177 26.8354C48.6756 26.6806 48.6475 26.5396 48.6197 26.3704H69.4958V24.6937V24.6936ZM48.7085 21.0541C48.9756 18.2711 50.9024 16.5595 54.2494 16.5595C57.5967 16.5595 59.5235 18.3686 59.5235 21.0541H48.7085Z" fill="white"/>
</svg>
  