<svg width="197" height="33" viewBox="0 0 197 33" fill="none"
  xmlns="http://www.w3.org/2000/svg">
  <g clip-path="url(#clip0_30_360)">
    <path d="M58.9503 26.068H56.0069C55.513 26.068 55.1129 25.6679 55.1129 25.174V24.6689C53.6066 25.8892 51.6354 26.6044 49.1971 26.6044C44.6424 26.6044 40.4117 22.767 40.4117 17.1395C40.4117 11.512 44.6424 7.63893 49.1971 7.63893C51.6354 7.63893 53.6066 8.35633 55.1129 9.61012V0.893964C55.1129 0.400049 55.513 0 56.0069 0H58.9525C59.4464 0 59.8465 0.400049 59.8465 0.893964V25.1718C59.8442 25.6679 59.4442 26.068 58.9503 26.068ZM55.1129 17.1395C55.1129 13.8408 52.5674 11.7623 50.0218 11.7623C47.1544 11.7623 45.0022 13.8408 45.0022 17.1395C45.0022 20.4383 47.1544 22.481 50.0218 22.481C52.5674 22.4832 55.1129 20.4383 55.1129 17.1395Z" fill="white"/>
    <path d="M69.2756 2.83359C69.2756 4.41143 68.0575 5.5937 66.4082 5.5937C64.723 5.5937 63.5408 4.41143 63.5408 2.83359C63.5408 1.32726 64.723 0.00195312 66.4082 0.00195312C68.0575 0.00195312 69.2756 1.32726 69.2756 2.83359ZM64.0414 25.1738V9.06899C64.0414 8.57507 64.4414 8.17502 64.9354 8.17502H67.881C68.3749 8.17502 68.7749 8.57507 68.7749 9.06899V25.1738C68.7749 25.6677 68.3749 26.0677 67.881 26.0677H64.9354C64.4414 26.0677 64.0414 25.6677 64.0414 25.1738Z" fill="white"/>
    <path d="M90.4312 24.3471C90.4312 29.8338 86.6319 32.88 80.8591 32.88C77.1335 32.88 74.3287 31.6999 72.6771 29.6773C72.3597 29.2907 72.4424 28.7141 72.8402 28.4124L75.3053 26.5462C75.6763 26.2646 76.2015 26.3183 76.5122 26.6669C77.6945 27.99 78.8276 28.6157 80.8569 28.6157C83.8695 28.6157 85.8407 26.7518 85.8407 23.6319V23.3458C84.5132 24.4208 82.685 24.9952 80.211 24.9952C75.73 24.9952 71.535 21.1936 71.535 16.2813C71.535 11.4047 75.73 7.64111 80.211 7.64111C82.685 7.64111 84.5132 8.25124 85.8407 9.29048V9.07369C85.8407 8.57978 86.2407 8.17973 86.7347 8.17973H89.5015C89.9954 8.17973 90.3954 8.57978 90.3954 9.07146L90.4312 24.3471ZM85.8407 16.279C85.8407 13.4832 83.5454 11.617 81.0356 11.617C78.204 11.617 76.0876 13.4809 76.0876 16.279C76.0876 19.0749 78.2018 20.9411 81.0356 20.9411C83.5454 20.9411 85.8407 19.0772 85.8407 16.279Z" fill="white"/>
    <path d="M99.8603 2.83359C99.8603 4.41143 98.6401 5.5937 96.9929 5.5937C95.3078 5.5937 94.1255 4.41143 94.1255 2.83359C94.1255 1.32726 95.3078 0.00195312 96.9929 0.00195312C98.6423 0.00195312 99.8603 1.32726 99.8603 2.83359ZM94.6262 25.1738V9.06899C94.6262 8.57507 95.0262 8.17502 95.5201 8.17502H98.4657C98.9597 8.17502 99.3597 8.57507 99.3597 9.06899V25.1738C99.3597 25.6677 98.9597 26.0677 98.4657 26.0677H95.5201C95.0262 26.0677 94.6262 25.6677 94.6262 25.1738Z" fill="white"/>
    <path d="M117.433 24.5436C117.581 24.9727 117.382 25.4466 116.973 25.6432C115.476 26.3629 114.331 26.6042 113.026 26.6042C108.795 26.6042 106 24.3805 106 19.4682V12.0483H103.056C102.562 12.0483 102.162 11.6482 102.162 11.1543V9.06913C102.162 8.57521 102.562 8.17516 103.056 8.17516H106V3.65617C106 3.16226 106.4 2.76221 106.894 2.76221H109.839C110.333 2.76221 110.733 3.16226 110.733 3.65617V8.1774H115.683C116.177 8.1774 116.577 8.57744 116.577 9.07136V11.1565C116.577 11.6504 116.177 12.0505 115.683 12.0505H110.733V19.1128C110.733 21.265 111.772 22.197 113.35 22.197C113.942 22.197 114.736 22.0115 115.482 21.7232C115.954 21.5399 116.481 21.7858 116.647 22.264L117.433 24.5436Z" fill="white"/>
    <path d="M136.799 26.0677H133.853C133.359 26.0677 132.959 25.6677 132.959 25.1738V24.6687C131.453 25.889 129.482 26.6041 127.044 26.6041C122.489 26.6041 118.258 22.7668 118.258 17.1393C118.258 11.5118 122.489 7.63867 127.044 7.63867C129.482 7.63867 131.453 8.35608 132.959 9.60986V9.06902C132.959 8.5751 133.359 8.17505 133.853 8.17505H136.799C137.293 8.17505 137.693 8.5751 137.693 9.06902V25.1738C137.693 25.6677 137.293 26.0677 136.799 26.0677ZM132.959 17.1393C132.959 13.8405 130.414 11.7621 127.868 11.7621C125.001 11.7621 122.849 13.8405 122.849 17.1393C122.849 20.438 125.001 22.4807 127.868 22.4807C130.414 22.4829 132.959 20.438 132.959 17.1393Z" fill="white"/>
    <path d="M155.161 26.068H141.456C140.963 26.068 140.562 25.6679 140.562 25.174V23.4889C140.562 23.1626 140.681 22.8475 140.895 22.6039L150.17 12.0484H141.454C140.96 12.0484 140.56 11.6483 140.56 11.1544V9.06926C140.56 8.57534 140.96 8.17529 141.454 8.17529H155.121C155.615 8.17529 156.015 8.57534 156.015 9.06926V10.8237C156.015 11.15 155.894 11.4673 155.677 11.7132L146.405 22.1971H155.159C155.653 22.1971 156.053 22.5972 156.053 23.0911V25.1763C156.055 25.6679 155.655 26.068 155.161 26.068Z" fill="white"/>
    <path d="M176.741 17.1394C176.741 22.7692 172.332 26.5328 167.095 26.5328C161.754 26.5328 157.342 22.7669 157.342 17.1394C157.342 11.5119 161.752 7.74609 167.095 7.74609C172.33 7.74609 176.741 11.5097 176.741 17.1394ZM172.151 17.1394C172.151 13.8049 169.569 11.798 167.095 11.798C164.514 11.798 161.933 13.8049 161.933 17.1394C161.933 20.4739 164.514 22.4809 167.095 22.4809C169.569 22.4831 172.151 20.4739 172.151 17.1394Z" fill="white"/>
    <path d="M196.784 15.1684V25.1741C196.784 25.668 196.384 26.068 195.89 26.068H192.944C192.45 26.068 192.05 25.668 192.05 25.1741V16.1718C192.05 13.662 190.616 11.9769 188.43 11.9769C185.741 11.9769 183.985 13.7693 183.985 18.143V25.1741C183.985 25.668 183.585 26.068 183.091 26.068H180.145C179.651 26.068 179.251 25.668 179.251 25.1741V9.0693C179.251 8.57538 179.651 8.17533 180.145 8.17533H183.091C183.585 8.17533 183.985 8.57538 183.985 9.0693V9.78894C185.384 8.38988 187.248 7.63672 189.614 7.63672C193.914 7.63895 196.784 10.7209 196.784 15.1684Z" fill="white"/>
    <path d="M23.9851 21.8013C23.9762 21.7611 23.9717 21.7208 23.9628 21.6828C23.9449 21.6113 23.9225 21.542 23.9024 21.4705C23.889 21.4281 23.8801 21.3834 23.8644 21.3409C23.8264 21.2314 23.7817 21.1219 23.7348 21.0168C23.7348 21.0146 23.7348 21.0146 23.7326 21.0124C23.4867 20.4872 23.1023 20.0379 22.5793 19.7563C22.5749 19.7541 22.5726 19.7519 22.5704 19.7496L16.1853 16.4375L2.93448 23.4238C3.8128 25.2386 3.46416 27.7417 2.86297 29.8715C2.28859 31.9031 4.15474 33.6061 5.98737 32.5534L24.0298 22.036C24.0186 21.9555 24.0008 21.8795 23.9851 21.8013Z" fill="white"/>
    <path d="M16.1852 16.4353L2.93444 9.45117C2.25502 11.067 0.663768 13.9478 0.525204 14.2026C0.167618 14.8641 0.00446982 15.6598 0 16.4353C0.00446982 17.213 0.167618 18.0086 0.525204 18.6679C0.663768 18.9227 2.25502 21.8058 2.93444 23.4216L16.1852 16.4353Z" fill="white"/>
    <path d="M23.9851 11.0715C23.9762 11.1117 23.9717 11.1519 23.9628 11.1899C23.9449 11.2614 23.9225 11.3307 23.9024 11.4022C23.889 11.4447 23.8801 11.4894 23.8644 11.5319C23.8264 11.6414 23.7817 11.7509 23.7348 11.8559C23.7348 11.8582 23.7348 11.8582 23.7326 11.8604C23.4867 12.3856 23.1023 12.8348 22.5793 13.1164C22.5749 13.1187 22.5726 13.1209 22.5704 13.1231L16.1853 16.4353L2.93448 9.45117C3.8128 7.63642 3.46416 5.13332 2.86297 3.00345C2.28859 0.97192 4.15474 -0.731082 5.98737 0.321561L24.0298 10.8391C24.0186 10.9173 24.0008 10.9955 23.9851 11.0715Z" fill="white"/>
    <path d="M30.33 14.4331L24.1169 10.8908L24.0275 10.8394C24.0164 10.9176 24.0007 10.9958 23.9851 11.0718C23.9761 11.112 23.9717 11.1522 23.9627 11.1902C23.9449 11.2618 23.9225 11.331 23.9024 11.4026C23.889 11.445 23.88 11.4897 23.8644 11.5322C23.8264 11.6417 23.7817 11.7512 23.7348 11.8562C23.7348 11.8585 23.7348 11.8585 23.7325 11.8607C23.4867 12.3859 23.1023 12.8351 22.5793 13.1167C22.5771 13.119 22.5726 13.1212 22.5704 13.1234L16.1852 16.4356L22.5704 19.7499C22.5726 19.7522 22.5771 19.7544 22.5793 19.7566C23.1023 20.0405 23.4867 20.4875 23.7325 21.0127C23.7325 21.0149 23.7325 21.0149 23.7348 21.0171C23.7839 21.1222 23.8264 21.2295 23.8644 21.3412C23.88 21.3837 23.889 21.4284 23.9024 21.4708C23.9225 21.5401 23.9471 21.6116 23.9627 21.6831C23.9717 21.7211 23.9761 21.7614 23.9851 21.8016C24.0007 21.8798 24.0186 21.9558 24.0275 22.034L24.1169 21.9826L30.33 18.4403C31.1435 17.971 31.548 17.2044 31.5458 16.4356C31.5503 15.669 31.1457 14.9002 30.33 14.4331Z" fill="white"/>
  </g>
  <defs>
    <clipPath id="clip0_30_360">
      <rect width="196.784" height="32.88" fill="white"/>
    </clipPath>
  </defs>
</svg>
  