<svg width="198" height="53" viewBox="0 0 198 53" fill="none"
  xmlns="http://www.w3.org/2000/svg">
  <path fill-rule="evenodd" clip-rule="evenodd" d="M143.065 24.1537C143.065 25.969 142.345 27.1423 140.905 27.671L143.781 31.7237H140.661L138.143 28.1094H136.388V31.7237H133.854V20.3919H138.158C139.925 20.3919 141.184 20.6897 141.937 21.2838C142.688 21.878 143.066 22.8355 143.066 24.1523M140.012 25.4978C140.325 25.2177 140.482 24.7724 140.482 24.1619C140.482 23.5499 140.319 23.132 139.994 22.9052C139.67 22.6771 139.101 22.5637 138.289 22.5637H136.388V25.9198H138.24C139.106 25.9198 139.696 25.7805 140.012 25.4978ZM156.648 31.7237H151.677V20.3919H156.096C156.865 20.3919 157.529 20.4848 158.086 20.6678C158.643 20.8522 159.063 21.1008 159.345 21.4136C159.854 21.9969 160.11 22.6566 160.11 23.3915C160.11 24.278 159.822 24.9377 159.247 25.3694C159.053 25.521 158.917 25.6152 158.841 25.6521C158.708 25.7176 158.572 25.78 158.436 25.8392C159.139 25.9909 159.699 26.3078 160.116 26.7872C160.534 27.2694 160.743 27.8663 160.743 28.5793C160.743 29.3688 160.471 30.0654 159.93 30.6692C159.302 31.3727 158.209 31.7237 156.648 31.7237ZM154.211 24.9801H155.413C156.116 24.9801 156.639 24.9049 156.981 24.7533C157.322 24.6017 157.493 24.2752 157.493 23.7726C157.493 23.2699 157.336 22.938 157.022 22.7754C156.708 22.6129 156.176 22.5323 155.429 22.5323H154.211V24.9801ZM154.211 29.5846H155.95C156.675 29.5846 157.22 29.4945 157.582 29.3169C157.945 29.1393 158.127 28.7869 158.127 28.2638C158.127 27.7393 157.934 27.3937 157.551 27.2257C157.165 27.0577 156.551 26.9743 155.707 26.9743H154.211V29.5846ZM176.843 31.7237L175.787 29.2759H171.027L169.97 31.7237H167.273L172.18 20.3919H174.633L179.539 31.7237H176.843ZM173.415 23.7644L171.984 27.0549H174.828L173.415 23.763V23.7644ZM194.812 20.3919V27.6874L189.239 20.3933H186.868V31.7237H189.401V24.6236L194.812 31.7237H197.346V20.3919H194.812ZM64.5822 5.831C63.8391 6.49075 61.2725 11.1786 61.2725 14.9486C61.2725 18.0821 63.5359 21.5762 63.5359 23.1279C63.5359 25.2273 63.3665 40.4261 63.3665 41.2839C63.3665 42.3439 63.8842 42.8506 64.7625 42.8506C65.6394 42.8506 66.1558 42.3439 66.1558 41.2839L65.1108 5.8993C65.1108 5.8993 65.1108 5.72446 64.8431 5.72446C64.6642 5.72446 64.5822 5.831 64.5822 5.831ZM5.93571 17.3759C5.93571 17.3759 6.37691 16.9361 6.30724 16.2408C6.30724 16.2408 6.29222 13.2002 6.21573 10.6978L6.06138 7.88537L6.05455 7.76244L5.98898 6.65603C5.98206 6.44291 5.95368 6.23103 5.90429 6.0236C5.86026 5.90324 5.79085 5.79377 5.70077 5.70261C5.68379 5.68635 5.66242 5.67543 5.6393 5.67119C5.5232 5.66026 5.459 5.92798 5.44534 6.00311C5.4018 6.20631 5.37575 6.41287 5.36748 6.62051C5.36475 6.80765 5.32377 7.716 5.30738 7.97006L5.31421 13.2426L5.31148 13.9105C5.31011 14.0744 5.16805 14.2056 4.99458 14.2056C4.91425 14.2076 4.83617 14.1789 4.77627 14.1254C4.71636 14.0718 4.67915 13.9974 4.67222 13.9173C4.6531 13.5349 4.65173 13.1511 4.6408 12.77L4.5206 7.67092L4.49055 7.11908C4.4809 6.95884 4.47179 6.79857 4.46323 6.63827C4.45723 6.41217 4.42978 6.18715 4.38127 5.96623C4.35942 5.87881 4.3321 5.76544 4.26244 5.70261C4.24514 5.68604 4.22324 5.67509 4.1996 5.67119C4.08487 5.66026 4.02203 5.92798 4.00701 6.00311C3.96064 6.29066 3.9319 6.58079 3.92095 6.87185L3.87178 7.73785L3.79392 13.2972C3.79392 13.2972 3.80758 13.5567 3.79119 13.901C3.78462 13.9801 3.74822 14.0537 3.68938 14.107C3.63054 14.1602 3.55365 14.1891 3.47429 14.1878C3.39295 14.1898 3.31396 14.1604 3.2537 14.1057C3.19343 14.051 3.1565 13.9753 3.15057 13.8941C3.15876 13.6073 3.15193 11.8275 3.14783 11.5953L3.13417 10.2443C3.12734 10.1105 3.13417 6.77077 3.12598 6.63691C3.12056 6.41068 3.09265 6.18556 3.04266 5.96487C3.0208 5.87745 2.99485 5.76407 2.92519 5.70124C2.90752 5.68443 2.8851 5.67346 2.86099 5.66982C2.74625 5.6589 2.68342 5.92662 2.66976 6.00175C2.63309 6.18304 2.61297 6.36729 2.60965 6.55222C2.60829 6.74891 2.5796 7.30895 2.56868 7.50564L2.45257 13.0691C2.45257 13.2153 2.44984 13.36 2.44711 13.5062L2.44164 13.9092C2.43314 13.9864 2.39605 14.0577 2.33766 14.109C2.27928 14.1603 2.20382 14.1879 2.12611 14.1864C2.04532 14.1887 1.96681 14.1595 1.90716 14.1049C1.84752 14.0504 1.81141 13.9748 1.80648 13.8941C1.79282 13.6687 1.80375 13.5349 1.79965 13.2972L1.7177 7.81434L1.64121 6.4006H1.63574C1.61798 5.98809 1.51417 5.66846 1.38987 5.66846C1.25191 5.66846 1.13854 6.05365 1.13854 6.529V6.54675L1.02517 8.42901L0.663195 16.1479C0.663195 16.1479 0.52387 16.82 1.26694 17.4456L2.17256 18.3963C2.17256 18.3963 2.7763 18.8607 2.79952 19.8114C2.82274 20.7607 2.47443 30.3332 2.47443 30.3332L2.05918 41.4546C2.05918 41.8426 2.21331 42.2147 2.48766 42.4891C2.76201 42.7634 3.13411 42.9175 3.5221 42.9175C3.91009 42.9175 4.28219 42.7634 4.55654 42.4891C4.83089 42.2147 4.98502 41.8426 4.98502 41.4546L4.77466 30.2403L4.2638 19.8797C4.2638 19.8797 4.30888 18.9303 4.91399 18.3498L5.93571 17.3759Z" fill="white"/>
  <path fill-rule="evenodd" clip-rule="evenodd" d="M48.3589 7.35284C54.7624 12.0189 58.5843 19.5233 58.5843 27.4239C58.5843 41.1174 47.4219 52.258 33.6969 52.258C19.9734 52.258 8.80957 41.1174 8.80957 27.4239C8.80957 13.7304 19.9734 2.58845 33.6969 2.58845L33.7229 2.58982L33.7297 0.676141C33.7309 0.556836 33.7633 0.439926 33.8238 0.337051C33.8842 0.234176 33.9705 0.148926 34.0741 0.0897912C34.1778 0.0306561 34.2951 -0.000301133 34.4144 2.20799e-06C34.5337 0.000305549 34.6508 0.0318589 34.7542 0.0915201L41.7614 4.16474C41.8648 4.22476 41.9505 4.31095 42.0099 4.41463C42.0694 4.51831 42.1004 4.63582 42.1 4.75533C42.0996 4.87484 42.0677 4.99213 42.0075 5.09539C41.9474 5.19865 41.8611 5.28424 41.7573 5.34355L34.7173 9.36077C34.6135 9.41975 34.496 9.45049 34.3766 9.44991C34.2572 9.44934 34.14 9.41747 34.0368 9.35749C33.9336 9.2975 33.8479 9.2115 33.7882 9.10806C33.7286 9.00462 33.6971 8.88735 33.6969 8.76795L33.7051 6.8611H33.6969C22.3351 6.8611 13.0904 16.0853 13.0904 27.4239C13.0904 38.7625 22.3351 47.9867 33.6969 47.9867C45.0615 47.9867 54.3048 38.7625 54.3048 27.4239C54.3048 20.8811 51.1386 14.6674 45.8346 10.8032C45.6078 10.6382 45.4157 10.4301 45.2694 10.1908C45.1231 9.95149 45.0254 9.68565 44.982 9.40853C44.9386 9.13141 44.9503 8.84844 45.0165 8.57585C45.0826 8.30326 45.2019 8.0464 45.3675 7.81999C45.7024 7.36156 46.2056 7.05484 46.7665 6.96725C47.3274 6.87965 47.9002 7.01834 48.3589 7.35284ZM41.6276 13.5446L35.1885 28.07C34.9916 28.5129 34.6592 28.8819 34.2392 29.1239C33.8193 29.3659 33.3334 29.4685 32.8514 29.4168C32.4385 29.3736 32.0452 29.2186 31.7138 28.9686C31.3824 28.7185 31.1254 28.3829 30.9705 27.9977C30.8155 27.6126 30.7685 27.1924 30.8345 26.7826C30.9004 26.3727 31.0769 25.9885 31.3448 25.6714L41.6276 13.5446ZM86.836 20.3921V22.6131H81.573V25.0622H86.5764V27.2832H81.573V31.7239H79.0378V20.3921H86.836ZM104.545 30.1599C103.398 31.2786 101.984 31.8373 100.304 31.8373C98.6254 31.8373 97.2116 31.2772 96.0642 30.1599C94.9168 29.0412 94.3432 27.6493 94.3432 25.9856C94.3432 24.3219 94.9168 22.93 96.0642 21.8113C97.2116 20.6912 98.6254 20.1325 100.304 20.1325C101.984 20.1325 103.397 20.6926 104.545 21.8113C105.693 22.93 106.266 24.3219 106.266 25.9856C106.266 27.6493 105.693 29.0412 104.545 30.1599ZM103.685 25.9938C103.685 24.983 103.358 24.1224 102.71 23.4081C102.059 22.695 101.262 22.3385 100.312 22.3385C99.3643 22.3385 98.5666 22.6937 97.9164 23.4081C97.2676 24.1211 96.9412 24.983 96.9412 25.9938C96.9412 27.0046 97.2676 27.8624 97.9164 28.5713C98.5666 29.2802 99.3643 29.6326 100.312 29.6326C101.26 29.6326 102.061 29.2802 102.71 28.5713C103.358 27.8624 103.683 27.0046 103.683 25.9938H103.685ZM123.976 30.1599C122.828 31.2786 121.415 31.8373 119.736 31.8373C118.056 31.8373 116.643 31.2772 115.496 30.1599C114.349 29.0412 113.772 27.6493 113.772 25.9856C113.772 24.3219 114.347 22.93 115.496 21.8113C116.643 20.6912 118.057 20.1325 119.736 20.1325C121.416 20.1325 122.828 20.6926 123.976 21.8113C125.123 22.93 125.697 24.3219 125.697 25.9856C125.697 27.6493 125.123 29.0412 123.976 30.1599ZM123.115 25.9938C123.115 24.983 122.79 24.1224 122.14 23.4081C121.491 22.695 120.692 22.3385 119.744 22.3385C118.796 22.3385 117.997 22.6937 117.348 23.4081C116.698 24.1211 116.373 24.983 116.373 25.9938C116.373 27.0046 116.698 27.8624 117.348 28.5713C117.997 29.2802 118.796 29.6326 119.744 29.6326C120.692 29.6326 121.491 29.2802 122.14 28.5713C122.79 27.8624 123.115 27.0046 123.115 25.9938Z" fill="white"/>
</svg>
  