<svg xmlns="http://www.w3.org/2000/svg" viewBox="0 0 1111.47 151.31">
  <polygon fill="white" points="111.04 1.06 110.83 32 38.78 32 38.78 65.06 105.32 65.06 105.32 96 38.78 96 38.78 149.61 0 149.61 0 1.06 111.04 1.06"/>
  <path fill="white" d="M286.08,75.23c0,43.44-34.33,76.08-80.31,76.08s-80.31-32.64-80.31-76.08C125.46,32,159.78,0,205.77,0s80.31,32.21,80.31,75.23m-120.79.21c0,24.16,18.87,42.8,40.9,42.8,22.25,0,40.05-18.64,40.05-42.8s-17.8-42.38-40.05-42.38-40.9,18.22-40.9,42.38"/>
  <path fill="white" d="M460.27,75.23c0,43.44-34.33,76.08-80.31,76.08s-80.32-32.64-80.32-76.08C299.64,32,334,0,380,0s80.31,32.21,80.31,75.23m-120.79.21c0,24.16,18.86,42.8,40.9,42.8,22.25,0,40.05-18.64,40.05-42.8s-17.8-42.38-40.05-42.38-40.9,18.22-40.9,42.38"/>
  <path fill="white" d="M575.12,149.61,553.51,108.5H524.69v41.11H485.91V1.06h66.76c39.41,0,61.87,19.07,61.87,52.13,0,22.47-9.32,39-26.49,47.89L619,149.61ZM524.69,77.56h28.19c15.68,0,24.78-8,24.78-23.1,0-14.62-9.1-22.46-24.78-22.46H524.69Z"/>
  <path fill="white" d="M771.35,38.57c0,15.46-10,28-25.64,32.21,18.86,3.81,30.51,18.44,30.51,37.51,0,25.43-22.24,41.32-57.21,41.32H645.69V1.06h70.57c33.69,0,55.09,14.62,55.09,37.51m-39.83,6.78c0-8.9-6.58-14.2-17.38-14H684.47V60.18h29.67c10.8,0,17.38-5.51,17.38-14.83m4.66,58.06c0-9.32-8.48-15.25-22-15H684.47v31.15h29.67c13.56,0,22-5.94,22-16.11"/>
  <path fill="white" d="M902.74,123.33H838.53l-10.39,26.28H788.3L852.09,1.06h39.84l62.3,148.55H912.91ZM891.29,93.66,871,40.69l-20.77,53Z"/>
  <polygon fill="white" points="1008.05 1.06 1075.45 90.49 1075.45 1.06 1111.47 1.06 1111.47 149.61 1077.56 149.61 1010.17 60.61 1010.17 149.61 973.94 149.61 973.94 1.06 1008.05 1.06"/>
</svg>