<svg width="210" height="49" viewBox="0 0 210 49" fill="none"
  xmlns="http://www.w3.org/2000/svg">
  <path d="M12.642 4.17545C11.676 4.21745 10.962 4.34345 10.542 4.51145C10.08 4.67945 9.786 4.97345 9.618 5.43545C9.45 5.89745 9.366 6.61145 9.366 7.61945V27.9475C9.366 28.7875 9.45 29.4175 9.576 29.7955C9.702 30.1735 9.954 30.4255 10.29 30.5935C10.626 30.7194 11.172 30.8035 11.928 30.8035H13.902C15.708 30.8035 17.304 30.0055 18.606 28.3675C19.95 26.7295 20.79 24.5875 21.21 21.8995H22.134C22.05 22.8235 22.008 23.9995 22.008 25.4275C22.008 27.9895 22.092 30.0895 22.302 31.7695C20.496 31.6855 17.43 31.6435 13.104 31.6435C7.266 31.6435 2.898 31.6855 0 31.7695V30.9295C0.882 30.8875 1.554 30.7615 1.932 30.5935C2.352 30.4255 2.646 30.1315 2.772 29.6695C2.898 29.2075 2.982 28.4935 2.982 27.4855V7.61945C2.982 6.61145 2.898 5.85545 2.772 5.43545C2.604 4.97345 2.352 4.67945 1.932 4.51145C1.512 4.34345 0.882 4.25945 0 4.17545V3.37745C1.386 3.46145 3.486 3.50345 6.342 3.50345C9.072 3.50345 11.172 3.46145 12.642 3.37745V4.17545ZM35.28 27.7795V19.5895C34.944 20.1355 34.272 20.7235 33.222 21.3535C32.172 22.0255 31.374 22.6975 30.87 23.3695C30.324 24.0415 30.072 25.0075 30.072 26.2675C30.072 27.3595 30.282 28.1575 30.744 28.7035C31.206 29.2075 31.794 29.5015 32.55 29.5015C33.6 29.4595 34.482 28.8715 35.28 27.7795ZM25.62 30.6775C24.78 29.7955 24.36 28.6195 24.36 27.1915C24.36 25.9735 24.654 25.0075 25.284 24.2095C25.914 23.4115 26.67 22.8235 27.594 22.4035C28.476 21.9835 29.652 21.5215 31.038 21.0595C32.508 20.5555 33.6 20.0935 34.272 19.6735C34.944 19.2535 35.28 18.7075 35.28 17.9515V14.8435C35.28 13.7095 35.028 12.8275 34.482 12.2395C33.978 11.6095 33.138 11.3155 32.046 11.3155C30.744 11.3155 29.778 11.6515 29.106 12.2815C29.862 12.5335 30.45 12.9535 30.87 13.4995C31.29 14.0455 31.5 14.6755 31.5 15.3895C31.5 16.3135 31.206 17.0275 30.576 17.5315C29.946 18.0775 29.19 18.3295 28.308 18.3295C27.384 18.3295 26.628 18.0355 26.124 17.4475C25.62 16.8595 25.368 16.1455 25.368 15.2635C25.368 14.5075 25.536 13.8775 25.914 13.3735C26.292 12.8695 26.838 12.3655 27.594 11.9035C28.308 11.4835 29.19 11.1475 30.282 10.8955C31.332 10.6435 32.508 10.5175 33.768 10.5175C35.07 10.5175 36.204 10.6435 37.17 10.9375C38.136 11.1895 38.934 11.6515 39.564 12.2815C40.152 12.8695 40.53 13.5835 40.74 14.4235C40.95 15.2635 41.034 16.4395 41.034 17.9095V28.7875C41.034 29.4175 41.076 29.8795 41.202 30.1315C41.328 30.3835 41.538 30.5515 41.916 30.5515C42.336 30.5515 42.798 30.3415 43.344 29.8795L43.764 30.5515C42.546 31.5595 41.076 32.0215 39.354 32.0215C37.884 32.0215 36.834 31.7275 36.246 31.1395C35.658 30.5515 35.364 29.7535 35.322 28.7875C33.978 30.9295 32.004 32.0215 29.4 32.0215C27.72 32.0215 26.46 31.5595 25.62 30.6775ZM67.914 3.25145C68.754 3.50345 69.594 3.92345 70.434 4.42745C70.728 4.59545 70.98 4.72145 71.232 4.84745C71.442 4.97345 71.652 5.01545 71.82 5.01545C72.072 5.01545 72.24 4.88945 72.366 4.59545C72.492 4.30145 72.618 3.88145 72.702 3.25145H73.626C73.5 5.05745 73.416 8.08145 73.416 12.3655H72.492C72.366 10.9375 72.072 9.55145 71.526 8.24945C70.98 6.94745 70.182 5.89745 69.216 5.05745C68.208 4.25945 67.032 3.83945 65.688 3.83945C64.386 3.83945 63.294 4.21745 62.496 4.93145C61.698 5.64545 61.278 6.65345 61.278 7.91345C61.278 8.83745 61.488 9.67745 61.866 10.3495C62.286 11.0635 62.832 11.6935 63.546 12.2395C64.26 12.8275 65.394 13.5835 66.864 14.5915L68.166 15.4735C69.762 16.5235 70.98 17.4055 71.904 18.2035C72.828 18.9595 73.542 19.8835 74.13 20.8915C74.718 21.8995 75.012 23.1175 75.012 24.4615C75.012 26.1835 74.55 27.6115 73.668 28.7455C72.786 29.8795 71.568 30.7615 70.056 31.3495C68.544 31.9375 66.864 32.2315 65.016 32.2315C63.504 32.2315 62.286 32.1055 61.278 31.8115C60.27 31.5595 59.388 31.1815 58.548 30.7195C57.96 30.3415 57.498 30.1735 57.162 30.1735C56.91 30.1735 56.742 30.2995 56.616 30.5935C56.49 30.8875 56.364 31.3075 56.28 31.9375H55.356C55.482 30.2575 55.524 26.6455 55.524 21.1435H56.448C56.616 24.1255 57.288 26.5615 58.464 28.4095C59.598 30.2575 61.404 31.1815 63.756 31.1815C65.184 31.1815 66.402 30.8035 67.326 30.0055C68.25 29.2495 68.712 28.1155 68.712 26.6875C68.712 25.1755 68.25 23.9155 67.284 22.8235C66.318 21.7735 64.806 20.5555 62.706 19.2115C61.11 18.1615 59.808 17.2795 58.842 16.4815C57.876 15.7255 57.078 14.8015 56.49 13.7515C55.86 12.7015 55.566 11.4835 55.566 10.0975C55.566 8.50145 55.986 7.15745 56.784 6.02345C57.582 4.93145 58.674 4.09145 60.06 3.54545C61.446 2.99945 62.916 2.74745 64.554 2.74745C65.94 2.83145 67.074 2.99945 67.914 3.25145ZM85.302 13.0795C84.672 14.2555 84.294 16.1035 84.126 18.5815H90.426C90.468 16.4815 90.258 14.7175 89.796 13.3735C89.334 11.9875 88.62 11.3155 87.696 11.3155C86.73 11.3155 85.932 11.9035 85.302 13.0795ZM94.71 25.8055L95.424 26.0575C94.878 27.7795 93.912 29.2495 92.568 30.4675C91.182 31.6855 89.46 32.2735 87.402 32.2735C84.546 32.2735 82.32 31.3915 80.64 29.5855C78.96 27.7795 78.12 25.1335 78.12 21.6055C78.12 17.9935 79.002 15.2635 80.808 13.3315C82.614 11.4415 84.966 10.4755 87.948 10.4755C92.988 10.4755 95.508 13.4575 95.508 19.3795H84.21C84.168 19.7995 84.168 20.3875 84.168 21.2695C84.168 23.0335 84.42 24.5035 84.924 25.6795C85.428 26.8555 86.058 27.6955 86.856 28.2415C87.654 28.7875 88.494 29.0395 89.418 29.0395C91.602 28.9975 93.366 27.9475 94.71 25.8055ZM130.452 30.2575C130.83 30.6775 131.502 30.8875 132.426 30.8875V31.7275C129.738 31.6015 127.974 31.5595 127.134 31.5595C126.378 31.5595 124.74 31.6015 122.136 31.7275V30.8875C122.85 30.8875 123.354 30.6775 123.648 30.2995C123.942 29.8795 124.068 29.1235 124.068 28.0315V15.5575C124.068 14.4235 123.9 13.5835 123.564 13.0375C123.228 12.4915 122.598 12.1975 121.674 12.1975C120.666 12.1975 119.826 12.6175 119.07 13.4575C118.314 14.2975 117.894 15.3055 117.768 16.4815V17.1955V27.9895C117.768 29.0815 117.936 29.8375 118.272 30.2575C118.608 30.6775 119.196 30.8875 120.12 30.8875V31.7275C117.558 31.6015 115.878 31.5595 115.038 31.5595C114.282 31.5595 112.644 31.6015 110.04 31.7275V30.8875C110.754 30.8875 111.258 30.6775 111.552 30.2575C111.846 29.8375 111.972 29.0815 111.972 27.9895V15.5575C111.972 14.4235 111.804 13.5835 111.51 13.0375C111.216 12.4915 110.628 12.1975 109.788 12.1975C108.696 12.1975 107.814 12.6595 107.016 13.5415C106.26 14.4235 105.882 15.5575 105.882 16.8595V27.9895C105.882 29.0815 106.008 29.8375 106.302 30.2575C106.596 30.6775 107.1 30.8875 107.814 30.8875V31.7275C105.462 31.6015 103.866 31.5595 103.068 31.5595C102.27 31.5595 100.422 31.6015 97.524 31.7275V30.8875C98.49 30.8875 99.162 30.6775 99.54 30.2575C99.918 29.8375 100.086 29.0815 100.086 27.9895V15.3895C100.086 14.1715 99.918 13.2475 99.54 12.7015C99.162 12.1555 98.49 11.8615 97.524 11.8615V11.0215C98.364 11.1055 99.204 11.1475 100.002 11.1475C102.396 11.1475 104.328 10.9795 105.882 10.6015V14.2135C107.058 11.7355 109.116 10.4755 112.098 10.4755C114.114 10.4755 115.626 10.9795 116.508 12.0295C117.012 12.5755 117.348 13.3735 117.516 14.4235C118.23 12.9955 119.112 11.9455 120.246 11.3575C121.38 10.7695 122.682 10.4755 124.194 10.4755C126.21 10.4755 127.722 10.9795 128.604 12.0295C129.024 12.4915 129.36 13.1635 129.528 14.0035C129.696 14.8435 129.822 15.8935 129.822 17.2375V27.9895C129.906 29.0815 130.074 29.8375 130.452 30.2575ZM145.068 27.7795V19.5895C144.732 20.1355 144.06 20.7235 143.01 21.3535C141.96 22.0255 141.162 22.6975 140.658 23.3695C140.112 24.0415 139.86 25.0075 139.86 26.2675C139.86 27.3595 140.07 28.1575 140.532 28.7035C140.994 29.2075 141.582 29.5015 142.338 29.5015C143.388 29.4595 144.312 28.8715 145.068 27.7795ZM135.408 30.6775C134.568 29.7955 134.148 28.6195 134.148 27.1915C134.148 25.9735 134.442 25.0075 135.072 24.2095C135.702 23.4115 136.458 22.8235 137.382 22.4035C138.264 21.9835 139.44 21.5215 140.826 21.0595C142.296 20.5555 143.388 20.0935 144.06 19.6735C144.732 19.2535 145.068 18.7075 145.068 17.9515V14.8435C145.068 13.7095 144.816 12.8275 144.27 12.2395C143.766 11.6095 142.926 11.3155 141.834 11.3155C140.532 11.3155 139.566 11.6515 138.894 12.2815C139.65 12.5335 140.238 12.9535 140.658 13.4995C141.078 14.0455 141.288 14.6755 141.288 15.3895C141.288 16.3135 140.994 17.0275 140.364 17.5315C139.734 18.0775 138.978 18.3295 138.096 18.3295C137.172 18.3295 136.416 18.0355 135.912 17.4475C135.408 16.8595 135.156 16.1455 135.156 15.2635C135.156 14.5075 135.324 13.8775 135.702 13.3735C136.08 12.8695 136.626 12.3655 137.382 11.9035C138.096 11.4835 138.978 11.1475 140.07 10.8955C141.12 10.6435 142.296 10.5175 143.556 10.5175C144.858 10.5175 145.992 10.6435 146.958 10.9375C147.924 11.1895 148.722 11.6515 149.352 12.2815C149.94 12.8695 150.318 13.5835 150.528 14.4235C150.738 15.2635 150.822 16.4395 150.822 17.9095V28.7875C150.822 29.4175 150.864 29.8795 150.99 30.1315C151.116 30.3835 151.326 30.5515 151.704 30.5515C152.124 30.5515 152.586 30.3415 153.132 29.8795L153.552 30.5515C152.334 31.5595 150.864 32.0215 149.142 32.0215C147.672 32.0215 146.622 31.7275 146.034 31.1395C145.446 30.5515 145.152 29.7535 145.11 28.7875C143.766 30.9295 141.792 32.0215 139.188 32.0215C137.55 32.0215 136.248 31.5595 135.408 30.6775ZM162.666 1.52945C163.338 2.07545 163.632 2.83145 163.632 3.79745C163.632 4.76345 163.296 5.51945 162.666 6.06545C161.994 6.61145 161.112 6.90545 159.978 6.90545C158.844 6.90545 157.962 6.61145 157.29 6.06545C156.618 5.51945 156.324 4.76345 156.324 3.79745C156.324 2.83145 156.66 2.07545 157.29 1.52945C157.962 0.983453 158.844 0.689453 159.978 0.689453C161.112 0.689453 161.994 0.983453 162.666 1.52945ZM163.128 27.9895C163.128 29.0815 163.338 29.8375 163.716 30.2575C164.094 30.6775 164.766 30.8875 165.69 30.8875V31.7275C163.002 31.6015 161.238 31.5595 160.356 31.5595C159.516 31.5595 157.668 31.6015 154.77 31.7275V30.8875C155.736 30.8875 156.408 30.6775 156.786 30.2575C157.164 29.8375 157.332 29.0815 157.332 27.9895V15.3895C157.332 14.1715 157.164 13.2475 156.786 12.7015C156.408 12.1555 155.736 11.8615 154.77 11.8615V11.0215C155.61 11.1055 156.45 11.1475 157.248 11.1475C159.642 11.1475 161.574 10.9795 163.128 10.6015V27.9895ZM186.774 12.0295C187.236 12.5335 187.53 13.2055 187.74 14.0035C187.908 14.8015 188.034 15.8935 188.034 17.2375V27.9895C188.034 29.0815 188.244 29.8375 188.622 30.2575C189 30.6775 189.672 30.8875 190.596 30.8875V31.7275C187.908 31.6015 186.144 31.5595 185.304 31.5595C184.506 31.5595 182.742 31.6015 180.096 31.7275V30.8875C180.894 30.8875 181.482 30.6775 181.776 30.2575C182.112 29.8375 182.238 29.0815 182.238 27.9895V15.5575C182.238 14.4655 182.07 13.6255 181.692 13.0795C181.314 12.5335 180.684 12.2395 179.76 12.2395C178.668 12.2395 177.744 12.7015 176.946 13.5835C176.19 14.4655 175.77 15.5995 175.77 16.9015V27.9895C175.77 29.0815 175.938 29.8375 176.232 30.2575C176.568 30.6775 177.114 30.8875 177.912 30.8875V31.7275C175.434 31.6015 173.796 31.5595 172.914 31.5595C172.116 31.5595 170.268 31.6015 167.37 31.7275V30.8875C168.336 30.8875 169.008 30.6775 169.386 30.2575C169.764 29.8375 169.932 29.0815 169.932 27.9895V15.3895C169.932 14.1715 169.764 13.2475 169.386 12.7015C169.008 12.1555 168.336 11.8615 167.37 11.8615V11.0215C168.21 11.1055 169.05 11.1475 169.848 11.1475C172.242 11.1475 174.174 10.9795 175.728 10.6015V14.2135C176.946 11.7355 179.13 10.4755 182.322 10.4755C184.38 10.4755 185.85 10.9795 186.774 12.0295ZM199.836 13.0795C199.206 14.2555 198.828 16.1035 198.66 18.5815H204.96C205.002 16.4815 204.792 14.7175 204.33 13.3735C203.868 11.9875 203.154 11.3155 202.23 11.3155C201.222 11.3155 200.424 11.9035 199.836 13.0795ZM209.202 25.8055L209.916 26.0575C209.37 27.7795 208.404 29.2495 207.06 30.4675C205.674 31.6855 203.952 32.2735 201.894 32.2735C199.038 32.2735 196.812 31.3915 195.132 29.5855C193.452 27.7795 192.612 25.1335 192.612 21.6055C192.612 17.9935 193.494 15.2635 195.3 13.3315C197.106 11.4415 199.458 10.4755 202.44 10.4755C207.48 10.4755 210 13.4575 210 19.3795H198.702C198.66 19.7995 198.66 20.3875 198.66 21.2695C198.66 23.0335 198.912 24.5035 199.416 25.6795C199.92 26.8555 200.55 27.6955 201.348 28.2415C202.146 28.7875 202.986 29.0395 203.91 29.0395C206.094 28.9975 207.858 27.9475 209.202 25.8055ZM90.888 40.5895C90.804 40.6315 90.72 40.7575 90.678 40.8834C90.636 41.0094 90.636 41.2615 90.636 41.5135V45.0835H91.14C91.77 45.0835 92.232 44.8735 92.484 44.4534C92.736 44.0335 92.862 43.4874 92.862 42.7734C92.862 42.0175 92.736 41.4295 92.526 41.0515C92.316 40.6735 91.896 40.5055 91.392 40.5055C91.14 40.5055 90.972 40.5055 90.888 40.5895ZM90.636 45.3355V47.4355C90.636 47.7715 90.678 47.9815 90.72 48.1495C90.762 48.3175 90.888 48.4015 91.098 48.4435C91.266 48.4855 91.56 48.5275 91.938 48.5275V48.7795C90.93 48.7375 90.216 48.7375 89.712 48.7375C89.292 48.7375 88.788 48.7375 88.2 48.7795H87.822V48.5275C88.074 48.5275 88.284 48.4855 88.41 48.4435C88.536 48.4015 88.62 48.3175 88.662 48.1495C88.704 48.0235 88.746 47.8135 88.746 47.4775V41.5135C88.746 41.2195 88.704 41.0095 88.662 40.8414C88.62 40.7155 88.536 40.6315 88.41 40.5475C88.284 40.5055 88.074 40.4635 87.822 40.4635V40.2115C88.242 40.2535 88.83 40.2535 89.67 40.2535H91.014C91.182 40.2535 91.35 40.2535 91.56 40.2535C92.652 40.2535 93.492 40.4635 94.038 40.8834C94.626 41.3035 94.878 41.8915 94.878 42.6055C94.878 43.0255 94.752 43.4875 94.542 43.8655C94.332 44.2855 93.954 44.6215 93.408 44.8735C92.862 45.1255 92.148 45.2934 91.266 45.2934H90.636V45.3355ZM98.91 45.2934L97.734 42.0595L96.474 45.2934H98.91ZM102.27 48.3175C102.396 48.4435 102.522 48.4855 102.648 48.5275V48.7795C102.186 48.7375 101.556 48.7375 100.8 48.7375C99.96 48.7375 99.372 48.7375 98.952 48.7795V48.5275C99.246 48.5275 99.456 48.4855 99.582 48.4015C99.708 48.3595 99.792 48.2335 99.792 48.0655C99.792 47.9395 99.75 47.7295 99.666 47.4775L98.952 45.5035H96.306L96.012 46.3434C95.802 46.9314 95.676 47.3515 95.676 47.6875C95.676 47.9815 95.76 48.1915 95.928 48.3175C96.096 48.4435 96.39 48.4855 96.726 48.5275V48.7795C96.18 48.7375 95.676 48.7375 95.214 48.7375C94.836 48.7375 94.542 48.7375 94.29 48.7795V48.5275C94.668 48.4435 95.046 48.0235 95.34 47.2675L98.07 40.2535C98.154 40.2535 98.28 40.2535 98.49 40.2535C98.7 40.2535 98.826 40.2535 98.91 40.2535L101.85 47.7715C102.018 48.0235 102.144 48.1915 102.27 48.3175ZM105.966 40.5895C105.882 40.6315 105.798 40.7575 105.756 40.8834C105.714 41.0094 105.714 41.2615 105.714 41.5135V44.4534H106.218C106.89 44.4534 107.31 44.2854 107.562 43.9495C107.814 43.6135 107.94 43.1095 107.94 42.4795C107.94 41.8075 107.814 41.3455 107.604 41.0095C107.352 40.6735 106.974 40.5055 106.47 40.5055C106.218 40.5055 106.05 40.5055 105.966 40.5895ZM111.048 48.2335C110.838 48.4855 110.586 48.6535 110.334 48.7795C110.082 48.9055 109.788 48.9475 109.41 48.9475C108.948 48.9475 108.57 48.8634 108.318 48.6535C108.066 48.4435 107.856 48.1075 107.814 47.6455L107.604 46.4275C107.52 45.8395 107.352 45.4195 107.226 45.1255C107.058 44.8315 106.848 44.7055 106.47 44.7055H105.672V47.4775C105.672 47.7715 105.714 47.9815 105.756 48.1495C105.798 48.2755 105.882 48.3595 106.008 48.4435C106.134 48.5275 106.344 48.5275 106.596 48.5275V48.7795C106.176 48.7375 105.546 48.7375 104.79 48.7375C103.95 48.7375 103.278 48.7375 102.9 48.7795V48.5275C103.152 48.5275 103.362 48.4855 103.488 48.4435C103.614 48.4015 103.698 48.3175 103.74 48.1495C103.782 48.0235 103.824 47.8135 103.824 47.4775V41.5135C103.824 41.2195 103.782 41.0095 103.74 40.8414C103.698 40.7155 103.614 40.6315 103.488 40.5475C103.362 40.5055 103.152 40.4635 102.9 40.4635V40.2115C103.32 40.2535 103.908 40.2535 104.748 40.2535H106.092C106.26 40.2535 106.428 40.2535 106.638 40.2535C107.73 40.2535 108.57 40.4215 109.158 40.7995C109.704 41.1775 109.998 41.6814 109.998 42.3535C109.998 42.9415 109.788 43.4035 109.368 43.8655C108.948 44.2855 108.276 44.5794 107.31 44.6635C108.024 44.7475 108.57 44.8735 108.906 45.1255C109.242 45.3775 109.494 45.7555 109.578 46.2595L109.872 47.4775C109.956 47.8135 109.998 48.0235 110.082 48.1495C110.166 48.2755 110.292 48.3595 110.418 48.3595C110.502 48.3595 110.586 48.3175 110.67 48.2755C110.754 48.2335 110.796 48.1495 110.922 48.0655L111.048 48.2335ZM115.038 40.5055C114.744 40.5055 114.576 40.5475 114.45 40.5895C114.324 40.6315 114.24 40.7155 114.198 40.8834C114.156 41.0094 114.114 41.2195 114.114 41.5555V47.5195C114.114 47.8134 114.156 48.0235 114.198 48.1915C114.24 48.3175 114.324 48.4015 114.45 48.4855C114.576 48.5275 114.786 48.5695 115.038 48.5695V48.8214C114.618 48.7794 113.988 48.7795 113.232 48.7795C112.392 48.7795 111.72 48.7794 111.342 48.8214V48.5695C111.594 48.5695 111.804 48.5275 111.93 48.4855C112.056 48.4435 112.14 48.3595 112.182 48.1915C112.224 48.0655 112.266 47.8555 112.266 47.5195V41.5555C112.266 41.2615 112.224 41.0514 112.182 40.8834C112.14 40.7575 112.056 40.6735 111.93 40.5895C111.804 40.5475 111.594 40.5055 111.342 40.5055V40.2535C111.762 40.2955 112.392 40.2955 113.232 40.2955C114.03 40.2955 114.618 40.2955 115.038 40.2535V40.5055ZM119.994 40.2115C120.246 40.2955 120.498 40.4215 120.75 40.5475C120.834 40.5895 120.918 40.6315 121.002 40.6735C121.086 40.7155 121.128 40.7155 121.17 40.7155C121.254 40.7155 121.296 40.6735 121.338 40.5895C121.38 40.5055 121.422 40.3795 121.422 40.1695H121.716C121.674 40.7155 121.674 41.6395 121.674 42.8995H121.38C121.338 42.4795 121.254 42.0595 121.086 41.6814C120.918 41.3035 120.708 40.9675 120.372 40.7155C120.078 40.4635 119.7 40.3375 119.322 40.3375C118.944 40.3375 118.608 40.4635 118.356 40.6735C118.104 40.8834 117.978 41.1775 117.978 41.5555C117.978 41.8495 118.02 42.1015 118.146 42.2695C118.272 42.4795 118.44 42.6475 118.65 42.8575C118.86 43.0255 119.196 43.2775 119.658 43.5714L120.036 43.8235C120.498 44.1175 120.876 44.4114 121.17 44.6215C121.422 44.8735 121.674 45.1255 121.842 45.4195C122.01 45.7135 122.094 46.0914 122.094 46.5115C122.094 47.0154 121.968 47.4355 121.716 47.8134C121.464 48.1495 121.086 48.4435 120.624 48.6115C120.162 48.7794 119.658 48.8634 119.112 48.8634C118.65 48.8634 118.272 48.8215 117.978 48.7375C117.684 48.6535 117.39 48.5695 117.138 48.4015C116.97 48.2755 116.844 48.2335 116.718 48.2335C116.634 48.2335 116.592 48.2755 116.55 48.3595C116.508 48.4435 116.466 48.5695 116.466 48.7795H116.172C116.214 48.2755 116.214 47.1835 116.214 45.5455H116.508C116.55 46.4275 116.76 47.1835 117.096 47.7295C117.432 48.2755 117.978 48.5695 118.692 48.5695C119.112 48.5695 119.49 48.4435 119.784 48.2335C120.078 47.9814 120.204 47.6875 120.204 47.2255C120.204 46.7635 120.078 46.3855 119.784 46.0914C119.49 45.7555 119.028 45.4195 118.398 44.9995C117.936 44.7055 117.516 44.4114 117.222 44.2015C116.928 43.9495 116.676 43.6975 116.508 43.3615C116.34 43.0255 116.214 42.6895 116.214 42.2695C116.214 41.8075 116.34 41.3875 116.592 41.0515C116.844 40.7155 117.18 40.4635 117.558 40.2955C117.978 40.1275 118.398 40.0434 118.902 40.0434C119.406 40.0854 119.742 40.1275 119.994 40.2115Z" fill="white"/>
</svg>
  