<svg width="224" height="24" viewBox="0 0 224 24" fill="none"
  xmlns="http://www.w3.org/2000/svg">
  <path d="M15.9093 12.0984C15.9093 2.60115 13.3082 0.21172 7.41025 0.21172C6.41213 0.21172 0 0.21172 0 0.21172V23.5011C0.786394 23.5011 6.2609 23.5011 7.22877 23.5011C13.9434 23.5011 15.9093 20.8394 15.9093 12.0984ZM11.0095 12.0076C11.0095 18.8432 9.64844 19.9018 7.28926 19.9018C6.44238 19.9018 4.68811 19.9018 4.68811 19.9018V3.75049C4.68811 3.75049 6.53312 3.75049 7.38 3.75049C9.55771 3.75049 11.0095 4.96033 11.0095 12.0076Z" fill="white"/>
  <path d="M32.8816 23.5011L31.7927 19.8111H23.3238V12.8848H30.6736V9.225H23.3238V3.90172H31.4902L32.4884 0.21172H18.7265V23.5011H32.8816Z" fill="white"/>
  <path d="M48.2252 23.5011L47.1666 19.7506H39.4236V0.21172H34.7355V23.5011H48.2252Z" fill="white"/>
  <path d="M54.7245 23.5011V0.21172H50.0364V23.5011H54.7245Z" fill="white"/>
  <path d="M73.6493 23.5011L69.9895 12.1891C72.5906 11.4027 73.5283 9.46697 73.5283 6.56336C73.5283 3.11533 71.774 0.21172 67.1161 0.21172C66.9649 0.21172 58.2238 0.21172 57.9516 0.21172V23.5011H62.5793V12.7033H65.3619L68.6284 23.5011H73.6493ZM68.6587 6.53311C68.6587 8.25713 67.8723 9.10402 66.0878 9.10402C66.0273 9.10402 62.5793 9.10402 62.5793 9.10402V3.84123C62.7607 3.84123 65.9668 3.84123 66.0575 3.84123C67.8723 3.84123 68.6587 4.71836 68.6587 6.53311Z" fill="white"/>
  <path d="M90.8192 15.3649C90.8192 13.6107 90.8192 2.51041 90.8192 0.21172H86.2219C86.2219 2.75238 86.2219 14.1248 86.2219 15.1834C86.2219 18.571 85.5564 19.9925 83.3485 19.9925C81.0801 19.9925 80.4146 18.5407 80.4146 15.2439C80.4146 14.5785 80.4146 2.84311 80.4146 0.21172H75.787C75.787 2.51041 75.787 14.4878 75.787 15.2137C75.787 20.9907 77.8135 23.683 83.3485 23.683C88.8533 23.683 90.8192 20.6277 90.8192 15.3649Z" fill="white"/>
  <path d="M109.201 16.5748C109.201 12.8848 107.417 11.2212 103.394 9.76943C102.819 9.55771 101.942 9.225 101.337 9.04353C98.7663 8.22689 98.1614 7.41025 98.1614 5.83746C98.1614 4.32516 98.9781 3.41779 100.702 3.41779C102.245 3.41779 102.94 4.29492 103.273 5.44426C103.333 5.65598 103.394 6.95656 103.424 7.19852L108.264 6.44238C108.233 6.23066 108.203 6.01893 108.173 5.83746C107.689 2.60115 105.723 0 100.914 0C95.8022 0 93.4128 2.20795 93.4128 6.04918C93.4128 9.34598 94.9856 11.0398 98.7361 12.1891C99.583 12.4613 100.309 12.794 101.126 13.0057C103.817 14.1551 104.271 15.0322 104.271 17.2099C104.271 19.1457 103.394 20.2043 101.428 20.2043C99.462 20.2043 98.5849 18.9944 98.3429 17.2402C98.2522 16.6957 98.2824 16.0606 98.3429 15.3649L93.0499 16.1513C93.0196 16.605 93.0196 17.0587 93.0499 17.4821C93.3826 21.5956 95.8325 23.6523 101.126 23.6523C107.084 23.6523 109.201 21.1721 109.201 16.5748Z" fill="white"/>
  <path d="M133.478 7.44049C132.782 2.44992 130.786 0 125.886 0C120.956 0 117.841 2.48016 117.841 11.7354C117.841 20.295 120.442 23.7128 125.826 23.743C130.574 23.7733 132.873 21.4443 133.448 15.8186L128.699 15.0625C128.336 19.2062 127.459 20.0228 125.765 20.0228C123.678 20.0228 122.619 18.45 122.619 11.8564C122.619 5.17205 123.678 3.75049 125.795 3.75049C127.489 3.75049 128.215 4.8091 128.608 8.13615L133.478 7.44049Z" fill="white"/>
  <path d="M151.717 23.5011L145.577 0.21172H140.496L134.447 23.5011H139.135L140.193 19.0247H146.001L147.089 23.5011H151.717ZM145.093 15.6371H141.07L142.432 9.6182C142.583 8.98303 142.976 6.80533 143.036 5.89795C143.067 6.80533 143.52 9.01328 143.672 9.6182L145.093 15.6371Z" fill="white"/>
  <path d="M168.75 7.10779C168.75 1.66352 166.179 0.21172 162.156 0.21172C162.156 0.21172 153.687 0.21172 153.415 0.21172V23.5011H158.103V14.0946C158.315 14.0946 162.55 14.0946 162.55 14.0946C166.3 14.0946 168.75 12.4613 168.75 7.10779ZM163.971 7.25902C163.971 9.67869 163.185 10.4953 161.34 10.4953C161.279 10.4953 158.194 10.4953 158.103 10.4953V3.87147C158.255 3.87147 161.4 3.87147 161.461 3.87147C163.336 3.87147 163.971 4.96033 163.971 7.25902Z" fill="white"/>
  <path d="M175.708 23.5011V0.21172H171.02V23.5011H175.708Z" fill="white"/>
  <path d="M192.817 3.90172V0.21172H177.694V3.90172H182.957V23.5313H187.645V3.90172H192.817Z" fill="white"/>
  <path d="M208.812 23.5011L202.672 0.21172H197.591L191.542 23.5011H196.23L197.288 19.0247H203.096L204.184 23.5011H208.812ZM202.188 15.6371H198.165L199.527 9.6182C199.678 8.98303 200.071 6.80533 200.131 5.89795C200.162 6.80533 200.615 9.01328 200.767 9.6182L202.188 15.6371Z" fill="white"/>
  <path d="M224 23.5011L222.941 19.7506H215.198V0.21172H210.51V23.5011H224Z" fill="white"/>
</svg>
