<svg width="109" height="60" viewBox="0 0 109 60" fill="none"
  xmlns="http://www.w3.org/2000/svg">
  <path d="M16.37 12.69C16.37 3.27 13.79 0.899999 7.94 0.899999C6.95 0.899999 0.59 0.899999 0.59 0.899999V24C1.37 24 6.8 24 7.76 24C14.42 24 16.37 21.36 16.37 12.69ZM11.51 12.6C11.51 19.38 10.16 20.43 7.82 20.43C6.98 20.43 5.24 20.43 5.24 20.43V4.41C5.24 4.41 7.07 4.41 7.91 4.41C10.07 4.41 11.51 5.61 11.51 12.6ZM33.2042 24L32.1242 20.34H23.7242V13.47H31.0142V9.84H23.7242V4.56H31.8242L32.8142 0.899999H19.1642V24H33.2042ZM48.4231 24L47.3731 20.28H39.6931V0.899999H35.0431V24H48.4231ZM54.8696 24V0.899999H50.2196V24H54.8696ZM73.6405 24L70.0105 12.78C72.5905 12 73.5205 10.08 73.5205 7.2C73.5205 3.78 71.7805 0.899999 67.1605 0.899999C67.0105 0.899999 58.3405 0.899999 58.0705 0.899999V24H62.6605V13.29H65.4205L68.6605 24H73.6405ZM68.6905 7.17C68.6905 8.88 67.9105 9.72 66.1405 9.72C66.0805 9.72 62.6605 9.72 62.6605 9.72V4.5C62.8405 4.5 66.0205 4.5 66.1105 4.5C67.9105 4.5 68.6905 5.37 68.6905 7.17ZM90.6709 15.93C90.6709 14.19 90.6709 3.18 90.6709 0.899999H86.1109C86.1109 3.42 86.1109 14.7 86.1109 15.75C86.1109 19.11 85.4509 20.52 83.2609 20.52C81.0109 20.52 80.3509 19.08 80.3509 15.81C80.3509 15.15 80.3509 3.51 80.3509 0.899999H75.7609C75.7609 3.18 75.7609 15.06 75.7609 15.78C75.7609 21.51 77.7709 24.21 83.2609 24.21C88.7209 24.21 90.6709 21.15 90.6709 15.93ZM108.903 17.13C108.903 13.47 107.133 11.82 103.143 10.38C102.573 10.17 101.703 9.84 101.103 9.66C98.5534 8.85 97.9534 8.04 97.9534 6.48C97.9534 4.98 98.7634 4.08 100.473 4.08C102.003 4.08 102.693 4.95 103.023 6.09C103.083 6.3 103.143 7.59 103.173 7.83L107.973 7.08C107.943 6.87 107.913 6.66 107.883 6.48C107.403 3.27 105.453 0.69 100.683 0.69C95.6134 0.69 93.2434 2.88 93.2434 6.69C93.2434 9.96 94.8034 11.64 98.5234 12.78C99.3634 13.05 100.083 13.38 100.893 13.59C103.563 14.73 104.013 15.6 104.013 17.76C104.013 19.68 103.143 20.73 101.193 20.73C99.2434 20.73 98.3734 19.53 98.1334 17.79C98.0434 17.25 98.0734 16.62 98.1334 15.93L92.8834 16.71C92.8534 17.16 92.8534 17.61 92.8834 18.03C93.2134 22.11 95.6434 24.15 100.893 24.15C106.803 24.15 108.903 21.69 108.903 17.13ZM15.59 43.07C14.9 38.12 12.92 35.69 8.06 35.69C3.17 35.69 0.0800001 38.15 0.0800001 47.33C0.0800001 55.82 2.66 59.21 8 59.24C12.71 59.27 14.99 56.96 15.56 51.38L10.85 50.63C10.49 54.74 9.62 55.55 7.94 55.55C5.87 55.55 4.82 53.99 4.82 47.45C4.82 40.82 5.87 39.41 7.97 39.41C9.65 39.41 10.37 40.46 10.76 43.76L15.59 43.07ZM33.6809 59L27.5909 35.9H22.5509L16.5509 59H21.2009L22.2509 54.56H28.0109L29.0909 59H33.6809ZM27.1109 51.2H23.1209L24.4709 45.23C24.6209 44.6 25.0109 42.44 25.0709 41.54C25.1009 42.44 25.5509 44.63 25.7009 45.23L27.1109 51.2ZM50.5754 42.74C50.5754 37.34 48.0254 35.9 44.0354 35.9C44.0354 35.9 35.6354 35.9 35.3654 35.9V59H40.0154V49.67C40.2254 49.67 44.4254 49.67 44.4254 49.67C48.1454 49.67 50.5754 48.05 50.5754 42.74ZM45.8354 42.89C45.8354 45.29 45.0554 46.1 43.2254 46.1C43.1654 46.1 40.1054 46.1 40.0154 46.1V39.53C40.1654 39.53 43.2854 39.53 43.3454 39.53C45.2054 39.53 45.8354 40.61 45.8354 42.89ZM57.477 59V35.9H52.827V59H57.477ZM74.4472 39.56V35.9H59.4472V39.56H64.6672V59.03H69.3172V39.56H74.4472ZM90.3118 59L84.2218 35.9H79.1818L73.1818 59H77.8318L78.8818 54.56H84.6418L85.7218 59H90.3118ZM83.7418 51.2H79.7518L81.1018 45.23C81.2518 44.6 81.6418 42.44 81.7018 41.54C81.7318 42.44 82.1818 44.63 82.3318 45.23L83.7418 51.2ZM105.376 59L104.326 55.28H96.6463V35.9H91.9963V59H105.376Z" fill="white"/>
</svg>
  