<svg width="116" height="40" viewBox="0 0 368 126" fill="none"
  xmlns="http://www.w3.org/2000/svg">
  <path fill-rule="evenodd" clip-rule="evenodd" d="M186.844 125.135H174.615L205.46 0H217.689L203.625 56.6721H205.816L219.869 0H232.098L201.262 125.135H189.031L202.903 68.6378H200.713L186.844 125.135ZM224.069 125.136H209.468C207.766 125.136 206.489 124.571 205.635 123.44C204.782 122.31 204.539 120.909 204.906 119.239L225.712 34.3456C226.2 32.6775 227.173 31.2485 228.633 30.0586C230.031 28.8902 231.685 28.267 233.377 28.271H247.978C249.682 28.271 250.959 28.8668 251.811 30.0586C252.662 31.2504 252.845 32.6852 252.359 34.3629L241.956 76.7565C241.469 78.4266 240.526 79.8613 239.127 81.0608C237.766 82.2388 236.138 82.865 234.472 82.8513H226.066L218.591 113.236H220.783L227.721 84.9891H239.948L231.368 119.239C231.003 120.905 230.121 122.304 228.724 123.434C227.347 124.559 225.725 125.152 224.069 125.136ZM228.992 70.788H231.181L238.67 40.1994H236.478L228.992 70.788ZM232.276 125.136H244.502L265.31 40.1994H267.5L260.566 68.6072H272.793L281.191 34.3399C281.677 32.6737 281.494 31.2457 280.643 30.0558C279.791 28.8659 278.514 28.271 276.81 28.271H262.209C260.517 28.267 258.863 28.8902 257.465 30.0586C256.005 31.2485 255.032 32.6775 254.544 34.3456L232.276 125.136ZM289.029 119.23C288.663 120.901 287.751 122.301 286.291 123.431C284.877 124.55 283.228 125.142 281.544 125.136H267.126C265.424 125.136 264.147 124.571 263.294 123.44C262.44 122.309 262.197 120.909 262.565 119.239L283.373 34.3456C283.859 32.6775 284.832 31.2485 286.291 30.0586C287.689 28.8905 289.343 28.2673 291.035 28.271H305.454C307.159 28.271 308.466 28.8668 309.378 30.0586C310.289 31.2504 310.502 32.6794 310.017 34.3456L289.029 119.23ZM296.328 40.1994H294.139L276.252 113.15H278.443L296.328 40.1994ZM295.958 125.136H310.559C312.215 125.152 313.837 124.559 315.214 123.434C316.611 122.304 317.493 120.905 317.858 119.239L326.438 84.9891H314.202L307.273 113.236H305.081L312.561 82.8513H320.962C322.629 82.865 324.257 82.2388 325.617 81.0608C327.017 79.8613 327.96 78.4266 328.444 76.7565L338.849 34.3629C339.335 32.6852 339.153 31.2504 338.301 30.0586C337.449 28.8668 336.172 28.271 334.468 28.271H319.867C318.175 28.267 316.521 28.8902 315.123 30.0586C313.66 31.2485 312.687 32.6775 312.202 34.3456L291.397 119.239C291.029 120.909 291.272 122.31 292.126 123.44C292.979 124.571 294.256 125.136 295.958 125.136ZM317.671 70.788H315.482L322.969 40.1994H325.16L317.671 70.788ZM339.389 125.135H324.788C323.086 125.135 321.809 124.571 320.956 123.442C320.102 122.313 319.859 120.915 320.227 119.247L328.623 84.9968H340.85L333.914 113.244H336.103L343.587 82.8504H335.191C333.488 82.8504 332.18 82.2536 331.267 81.0599C330.354 79.8662 330.142 78.4315 330.63 76.7557L341.032 34.3448C341.52 32.6747 342.493 31.24 343.953 30.0406C345.351 28.8721 347.005 28.2489 348.697 28.2529H363.298C365.002 28.2529 366.279 28.8478 367.131 30.0377C367.983 31.2276 368.165 32.6556 367.679 34.3218L359.283 68.6064H347.057L353.99 40.1985H351.801L344.316 70.7527H352.713C354.416 70.7527 355.694 71.319 356.545 72.4515C357.397 73.5839 357.641 74.9804 357.277 76.6409L346.691 119.224C346.322 120.894 345.44 122.295 344.044 123.428C342.668 124.555 341.046 125.15 339.389 125.135ZM69.7305 2.65298C68.8773 1.46119 67.5998 0.865295 65.898 0.865295H30.8945L29.5021 6.50381C29.4599 6.65016 29.4201 6.79077 29.3872 6.95146L18.8977 49.4455L0 125.974V126H12.2265L39.8862 13.8841L40.1464 12.831H42.3381L39.8182 23.0406L14.4205 125.974V126H26.6471L41.8247 64.5246L54.574 12.831H56.7633L41.6864 73.9336L28.8411 125.974V126H41.0676L43.2312 117.231L70.4595 6.93998C70.8252 5.27377 70.5822 3.84477 69.7305 2.65298ZM119.448 41.0925H105.175L96.579 75.9251L87.2474 114.003H89.3688L101.598 64.5103H113.817L99.9404 120.066C99.5732 121.734 98.691 123.134 97.294 124.264C95.9179 125.388 94.2976 125.98 92.6434 125.963H84.3009V125.989L77.7986 125.963C76.228 125.908 75.0349 125.352 74.2262 124.276C73.3777 123.145 73.1316 121.748 73.4972 120.078L102.877 0.89112H102.924V0.865295H115.153L108.217 29.1153H122.549L119.448 41.0925ZM68.4361 124.304C69.8957 123.174 70.8083 121.773 71.174 120.103L92.1625 35.21C92.6485 33.5437 92.4352 32.1147 91.5226 30.923C90.61 29.7312 89.302 29.1353 87.5987 29.1353H73.1805C71.4879 29.1313 69.8339 29.7545 68.4361 30.923C66.975 32.1147 66.0022 33.5437 65.5178 35.21L44.7097 120.103C44.3425 121.773 44.5855 123.174 45.4387 124.304C46.2919 125.435 47.5694 126 49.2712 126H63.6894C65.3724 126.009 67.0213 125.42 68.4361 124.304ZM76.2816 41.0809H78.4733L60.5765 114.023H58.3966L76.2816 41.0809ZM126.013 124.304C127.471 123.174 128.383 121.773 128.749 120.103L149.74 35.21C150.223 33.5437 150.009 32.1147 149.098 30.923C148.186 29.7312 146.879 29.1353 145.176 29.1353H130.758C129.065 29.1313 127.411 29.7545 126.013 30.923C124.551 32.1147 123.577 33.5437 123.093 35.21L102.287 120.103C101.919 121.773 102.165 123.182 103.016 124.304C103.867 125.426 105.147 126 106.846 126H121.267C122.95 126.009 124.598 125.42 126.013 124.304ZM133.864 41.0809H136.055L118.168 114.023H115.976L133.864 41.0809ZM141.648 126H129.421L151.69 35.21C152.177 33.5437 153.151 32.1147 154.61 30.923C156.008 29.7545 157.662 29.1313 159.355 29.1353H173.956C175.661 29.1353 176.938 29.7302 177.788 30.9201C178.638 32.11 178.821 33.538 178.337 35.2042L169.938 69.4772H157.712L164.652 41.0551H162.463L141.648 126Z" fill="#fff"></path>
</svg>