<svg xmlns="http://www.w3.org/2000/svg" width="557" height="119" viewBox="0 0 557 119" fill="white">
  <g clip-path="url(#clip0)">
    <path d="M181.95 45.76L175.95 5.70001C175.715 4.11512 174.918 2.6675 173.705 1.62116C172.491 0.574814 170.942 -0.000545806 169.34 3.88523e-07H164.52C160.347 0.00150772 156.232 0.978927 152.504 2.85416C148.776 4.72939 145.539 7.45047 143.05 10.8L111.05 53.87C110.489 54.6124 109.709 55.1602 108.82 55.4363C107.932 55.7125 106.979 55.7031 106.096 55.4095C105.213 55.1159 104.444 54.5528 103.898 53.7995C103.351 53.0462 103.055 52.1406 103.05 51.21V6.69C103.047 4.91652 102.342 3.21642 101.088 1.96237C99.8335 0.708327 98.1334 0.00264541 96.3599 3.88523e-07H84.4499C80.2768 0.0007237 76.1617 0.977797 72.4337 2.85309C68.7057 4.72838 65.4682 7.44989 62.9799 10.8L26.9799 59.29C25.7377 60.9658 24.1199 62.3272 22.2565 63.265C20.3932 64.2028 18.336 64.6908 16.2499 64.69H6.6899C5.72768 64.6892 4.77669 64.8963 3.90193 65.2972C3.02718 65.698 2.24935 66.2831 1.62166 67.0124C0.993975 67.7417 0.531251 68.598 0.265155 69.5227C-0.000941068 70.4474 -0.0641314 71.4186 0.079913 72.37L6.07991 112.44C6.3174 114.025 7.11667 115.471 8.33193 116.516C9.54719 117.56 11.0974 118.133 12.6999 118.13H17.5099C21.6789 118.136 25.7915 117.167 29.5194 115.3C33.2472 113.434 36.487 110.722 38.9799 107.38L70.9799 64.31C71.541 63.5676 72.3208 63.0198 73.2094 62.7437C74.0981 62.4675 75.051 62.4769 75.934 62.7705C76.8171 63.0641 77.5858 63.6272 78.1322 64.3805C78.6786 65.1338 78.9751 66.0395 78.9799 66.97V111.5C78.9826 113.273 79.6886 114.972 80.9429 116.224C82.1972 117.477 83.8974 118.18 85.6699 118.18H97.5599C101.737 118.186 105.857 117.211 109.589 115.336C113.322 113.46 116.562 110.735 119.05 107.38L155.05 58.89C156.294 57.2134 157.913 55.8516 159.778 54.9138C161.643 53.976 163.702 53.4884 165.79 53.49H175.32C176.289 53.4948 177.247 53.2888 178.128 52.8863C179.01 52.4838 179.793 51.8944 180.423 51.159C181.054 50.4236 181.517 49.5598 181.781 48.6276C182.045 47.6953 182.102 46.7168 181.95 45.76Z" fill="white"/>
    <path d="M260.43 9.8999L300.52 67.2999V9.8999H321.34V108.38H303.89L263.52 50.9799V108.38H242.7V9.8999H260.43Z" fill="white"/>
    <path d="M359.28 17.78C359.3 20.1773 358.607 22.5265 357.29 24.5294C355.972 26.5324 354.09 28.0989 351.88 29.03C349.671 29.9612 347.235 30.2151 344.881 29.7596C342.528 29.3041 340.362 28.1596 338.66 26.4715C336.958 24.7833 335.796 22.6275 335.321 20.2776C334.845 17.9278 335.079 15.4898 335.992 13.2729C336.905 11.0561 338.456 9.16046 340.447 7.82642C342.439 6.49238 344.783 5.78011 347.18 5.78003C350.365 5.80316 353.414 7.07175 355.675 9.31439C357.937 11.557 359.231 14.5956 359.28 17.78Z" fill="white"/>
    <path d="M357.17 39.3H337.33V108.37H357.17V39.3Z" fill="white"/>
    <path d="M447.02 73.7699C447.02 93.5999 432.82 109.77 414.95 109.77C405.38 109.77 397.95 105.83 393.15 98.6599V108.38H373.31V9.8999H393.15V49.0099C397.93 41.8299 405.38 37.8899 414.95 37.8899C432.82 37.8899 447.02 53.9299 447.02 73.7699ZM427.61 73.7699C427.61 69.2002 425.795 64.8177 422.563 61.5865C419.332 58.3552 414.95 56.5399 410.38 56.5399C405.81 56.5399 401.428 58.3552 398.197 61.5865C394.965 64.8177 393.15 69.2002 393.15 73.7699C393.15 83.4699 400.74 90.7699 410.45 90.7699C412.698 90.7991 414.929 90.3805 417.014 89.5385C419.099 88.6966 420.995 87.448 422.592 85.8657C424.189 84.2834 425.456 82.399 426.317 80.3223C427.179 78.2456 427.618 76.0182 427.61 73.7699V73.7699Z" fill="white"/>
    <path d="M527.03 73.9099C527.03 94.4499 511.41 109.78 491.16 109.78C470.76 109.78 455.28 94.4499 455.28 73.9099C455.28 53.3699 470.76 37.9099 491.16 37.9099C511.41 37.8899 527.03 53.3799 527.03 73.9099ZM474.7 73.9099C474.7 83.4699 481.7 90.7899 491.16 90.7899C500.44 90.7899 507.62 83.4699 507.62 73.9099C507.62 64.0599 500.44 56.9099 491.16 56.9099C481.73 56.8899 474.7 64.0599 474.7 73.9099V73.9099Z" fill="white"/>
    <path d="M556.89 108.38H537.06V9.8999H556.89V108.38Z" fill="white"/>
  </g>
</svg>