<svg width="171" height="68" viewBox="0 0 171 68" fill="none"
  xmlns="http://www.w3.org/2000/svg">
  <path fill-rule="evenodd" clip-rule="evenodd" d="M143.476 47.0479C143.476 47.4711 143.335 47.8087 143.022 48.0913C142.885 48.2322 142.721 48.3446 142.541 48.4221C142.36 48.4995 142.166 48.5405 141.97 48.5427C141.572 48.5427 141.203 48.402 140.919 48.0913C140.778 47.9564 140.665 47.7946 140.587 47.6155C140.509 47.4363 140.467 47.2433 140.465 47.0479V29.1369C140.465 28.7136 140.606 28.3748 140.919 28.0934C141.056 27.9527 141.219 27.8404 141.4 27.7629C141.58 27.6854 141.774 27.6444 141.97 27.6421C142.369 27.6421 142.738 27.7827 143.022 28.0934C143.306 28.3748 143.476 28.7418 143.476 29.1369V29.532C144.955 28.2623 146.717 27.6421 148.735 27.6421C151.009 27.6421 152.971 28.4323 154.59 30.0396C154.931 30.3785 155.244 30.7161 155.5 31.1112C155.784 30.7443 156.096 30.3785 156.409 30.0396C158.03 28.4323 159.962 27.6421 162.264 27.6421C164.538 27.6421 166.499 28.4323 168.119 30.0396C169.74 31.647 170.536 33.5651 170.536 35.8501V47.0479C170.536 47.4711 170.393 47.8087 170.081 48.0913C169.944 48.232 169.781 48.3443 169.6 48.4218C169.42 48.4992 169.226 48.5403 169.029 48.5427C168.602 48.5427 168.261 48.402 167.978 48.0913C167.836 47.9564 167.723 47.7946 167.645 47.6155C167.567 47.4363 167.525 47.2433 167.523 47.0479V35.8501C167.523 34.4116 167.012 33.17 165.988 32.1547C164.964 31.1394 163.714 30.6317 162.264 30.6317C160.815 30.6317 159.564 31.1394 158.541 32.1547C157.517 33.17 157.006 34.4116 157.006 35.8501V47.0479C157.006 47.4711 156.864 47.8087 156.551 48.0913C156.414 48.2322 156.251 48.3446 156.071 48.4221C155.89 48.4995 155.696 48.5405 155.5 48.5427C155.073 48.5427 154.733 48.402 154.448 48.0913C154.307 47.9563 154.194 47.7944 154.116 47.6153C154.037 47.4362 153.996 47.2433 153.993 47.0479V35.8501C153.993 34.4116 153.482 33.17 152.458 32.1547C151.435 31.1394 150.185 30.6317 148.735 30.6317C147.286 30.6317 146.035 31.1394 145.011 32.1547C143.989 33.17 143.476 34.4116 143.476 35.8501V47.0479ZM127.761 27.6421C130.661 27.6421 133.162 28.6574 135.209 30.688C137.284 32.7467 138.306 35.2018 138.278 38.0777C138.278 40.9548 137.254 43.4368 135.209 45.4686C133.162 47.4992 130.661 48.5145 127.761 48.5145C124.863 48.5145 122.361 47.4992 120.315 45.4686C118.268 43.4368 117.245 40.9548 117.245 38.0777C117.245 35.2018 118.268 32.7186 120.315 30.688C122.361 28.6574 124.863 27.6421 127.761 27.6421ZM112.468 19.0952C112.32 19.2243 112.202 19.385 112.123 19.5655C112.045 19.746 112.007 19.9418 112.014 20.1386V30.7724L111.928 30.688C109.853 28.6574 107.38 27.6421 104.481 27.6421C101.583 27.6421 99.0807 28.6574 97.0348 30.688C94.9878 32.7186 93.9655 35.2018 93.9655 38.0777C93.9655 40.9548 94.9878 43.438 97.0348 45.4686C99.0807 47.4992 101.583 48.5145 104.481 48.5145C107.38 48.5145 109.882 47.4992 111.928 45.4686C113.975 43.438 114.997 40.9548 114.997 38.0777V20.1386C114.997 19.7447 114.856 19.3777 114.572 19.0952C114.44 18.9474 114.278 18.8304 114.096 18.7524C113.914 18.6743 113.718 18.6373 113.52 18.6438C113.122 18.6438 112.752 18.8138 112.468 19.0952ZM109.825 32.8042C111.274 34.2427 112.014 36.019 112.014 38.0777C112.014 40.1376 111.274 41.9138 109.825 43.3524C108.376 44.791 106.584 45.5249 104.51 45.5249C102.435 45.5249 100.673 44.8191 99.1944 43.3524C97.7453 41.9138 97.0055 40.1376 97.0055 38.0777C97.0055 36.019 97.716 34.2709 99.1944 32.8042C100.644 31.3656 102.435 30.6317 104.51 30.6317C106.584 30.6317 108.346 31.3375 109.825 32.8042ZM127.791 45.5249C129.865 45.5249 131.627 44.8191 133.105 43.3524C134.554 41.9138 135.294 40.1376 135.294 38.0777C135.294 36.019 134.584 34.2709 133.105 32.8042C131.656 31.3656 129.865 30.6317 127.791 30.6317C125.716 30.6317 123.953 31.3375 122.475 32.8042C121.026 34.2416 120.287 36.019 120.287 38.0777C120.287 40.1376 120.998 41.8857 122.475 43.3524C123.925 44.791 125.716 45.5249 127.791 45.5249ZM39.2231 55.2278L37.6603 65.6072C37.4891 66.7069 38.3426 67.6941 39.4799 67.6941H52.9521C54.06 67.6941 54.9123 66.7069 54.7705 65.6072L53.2077 55.2278C53.1743 54.9959 53.1913 54.7596 53.2575 54.5349C53.3237 54.3102 53.4376 54.1025 53.5914 53.9258C53.7452 53.7491 53.9352 53.6076 54.1486 53.511C54.362 53.4144 54.5937 53.3649 54.8279 53.366H75.3206C75.4343 53.366 75.5761 53.366 75.6899 53.3378C76.0029 53.366 76.2866 53.366 76.5997 53.366C86.775 53.366 94.6759 43.8319 91.8059 33.3118C89.9007 26.3161 83.1933 21.6909 75.9173 22.0285C75.3487 16.5569 70.7446 12.2694 65.0877 12.2694C62.6651 12.2709 60.3131 13.0854 58.4085 14.5825C56.6087 10.2563 53.5657 6.56137 49.6649 3.9655C45.764 1.36964 41.1806 -0.0104163 36.4949 5.91972e-05C23.8188 5.91972e-05 13.4722 9.84364 12.8192 22.2548C5.51386 23.6371 0 30.0115 0 37.6556C0 46.2858 7.02041 53.2816 15.6892 53.3378H37.6028C38.5982 53.366 39.3661 54.2406 39.2231 55.2278ZM24.6992 48.0913C24.5623 48.232 24.3989 48.3443 24.2184 48.4218C24.0379 48.4992 23.844 48.5403 23.6476 48.5427C18.6449 48.5427 16.1148 46.0607 16.1148 41.0685V30.6317H14.6083C14.1827 30.6317 13.8415 30.491 13.5566 30.1803C13.4153 30.0453 13.3023 29.8835 13.2242 29.7044C13.1461 29.5252 13.1044 29.3323 13.1017 29.1369C13.1017 28.7136 13.2448 28.3748 13.5566 28.0934C13.8415 27.8109 14.2108 27.6421 14.6083 27.6421H16.1148V20.1679C16.1148 19.7447 16.2567 19.4059 16.5697 19.1233C16.8534 18.8419 17.2239 18.6719 17.6214 18.6719C18.0481 18.6719 18.3893 18.8138 18.673 19.1233C18.9568 19.4059 19.1279 19.7728 19.1279 20.1679V27.6421H22.1692C22.5959 27.6421 22.9359 27.7827 23.2208 28.0934C23.5046 28.3748 23.6757 28.7418 23.6757 29.1369C23.6757 29.5601 23.5339 29.899 23.2208 30.1803C23.0839 30.3211 22.9204 30.4334 22.74 30.5108C22.5595 30.5883 22.3655 30.6294 22.1692 30.6317H19.1279V41.0685C19.1279 44.0582 20.6345 45.553 23.6476 45.553C24.0732 45.553 24.4143 45.6937 24.6992 46.0044C24.983 46.2858 25.153 46.6527 25.153 47.0479C25.153 47.443 25.0111 47.8087 24.6992 48.0913ZM42.663 31.3375C43.0616 31.3375 43.4309 31.1675 43.7146 30.8861C43.9995 30.6036 44.1695 30.2366 44.1977 29.8134C44.1977 29.3913 44.0558 29.0525 43.7721 28.7418C43.5877 28.5749 43.3759 28.4413 43.146 28.3467C41.9243 27.8672 40.589 27.6139 39.1106 27.6139C36.183 27.6139 33.6811 28.6574 31.5778 30.7443V29.1087C31.5778 28.7136 31.4359 28.3467 31.1522 28.0653C31.021 27.9172 30.8587 27.8 30.6769 27.7219C30.4951 27.6439 30.2983 27.607 30.1006 27.6139C29.7019 27.6139 29.3326 27.7827 29.0489 28.0653C28.7359 28.3467 28.594 28.6855 28.594 29.1087V47.0197C28.594 47.4148 28.764 47.7806 29.0489 48.0632C29.3326 48.3738 29.6738 48.5145 30.1006 48.5145C30.498 48.5145 30.8673 48.3457 31.1522 48.0632C31.4359 47.7806 31.5778 47.443 31.5778 47.0197V38.0777C31.5778 36.019 32.2895 34.2709 33.7667 32.8042C35.217 31.3656 37.0072 30.6317 39.0824 30.6317C40.1341 30.6317 41.1283 30.8298 42.0099 31.1956C42.2081 31.2801 42.4355 31.3375 42.663 31.3375ZM64.8321 38.9523C64.6938 39.0893 64.5295 39.1973 64.349 39.2699C64.1684 39.3426 63.9751 39.3785 63.7805 39.3756H47.437C47.7219 40.8141 48.4043 42.0557 49.4841 43.1554C50.6495 44.3114 52.0423 45.0172 53.6051 45.2423H53.6626C53.7188 45.2423 53.7763 45.2423 53.8326 45.2705C53.8795 45.2705 53.9263 45.2798 53.9686 45.2869C54.0026 45.2927 54.0342 45.2986 54.06 45.2986H54.7423C56.4189 45.2986 57.9817 44.8191 59.432 43.8038C60.0814 43.3505 60.6649 42.8096 61.166 42.1964C61.2841 42.051 61.4173 41.9185 61.5634 41.8013C61.9046 41.5762 62.2739 41.4906 62.7007 41.5762C63.0981 41.6325 63.4393 41.8576 63.6668 42.1964C63.8942 42.5352 63.9798 42.901 63.9223 43.2961C63.8739 43.5661 63.7564 43.819 63.5812 44.0301C62.9281 44.8472 62.1039 45.5812 61.166 46.2295C58.9197 47.8099 56.4752 48.4583 53.8044 48.232C53.7329 48.232 53.6696 48.2249 53.6051 48.2179C53.5406 48.2109 53.4773 48.2038 53.4058 48.2038H53.3214C53.1718 48.1713 53.0195 48.1525 52.8665 48.1476C52.8372 48.1476 52.809 48.1476 52.7528 48.1194C50.7057 47.7525 48.9155 46.7934 47.3526 45.2423C45.3056 43.2117 44.2821 40.7579 44.2821 37.8807C44.2821 35.0036 45.3056 32.5498 47.3526 30.5192C49.3985 28.4885 51.8711 27.4732 54.7705 27.4732C57.6699 27.4732 60.1425 28.4885 62.1883 30.5192C64.2354 32.5498 65.2589 35.0036 65.2589 37.8807C65.2589 38.304 65.1159 38.671 64.8321 38.9523ZM77.7357 45.2423C76.1729 45.0172 74.7801 44.3114 73.6147 43.1554C72.5068 42.0838 71.8244 40.8141 71.5688 39.3474H87.9111C88.3097 39.3474 88.679 39.2067 88.9628 38.9242C89.2477 38.6428 89.3895 38.2758 89.3895 37.8807C89.3895 35.0036 88.366 32.5498 86.3201 30.5192C84.2731 28.4885 81.8005 27.4732 78.9011 27.4732C76.0017 27.4732 73.5291 28.4885 71.4832 30.5192C69.4362 32.5498 68.4139 35.0036 68.4139 37.8807C68.4139 40.7579 69.4362 43.2117 71.4832 45.2423C73.0179 46.7934 74.8363 47.7525 76.8834 48.1194C76.918 48.1391 76.9573 48.1489 76.9971 48.1476C77.139 48.1476 77.3101 48.1757 77.452 48.2038H77.5376C77.6079 48.2038 77.6724 48.2109 77.7357 48.2179C77.8002 48.2249 77.8635 48.232 77.935 48.232C80.607 48.4583 83.0514 47.8099 85.2966 46.2295C86.2346 45.5812 87.0588 44.8472 87.713 44.0301C87.883 43.8319 87.9967 43.5787 88.053 43.2961C88.1123 42.9103 88.0208 42.5165 87.7974 42.1964C87.6896 42.0304 87.5477 41.8893 87.3811 41.7823C87.2145 41.6754 87.0271 41.6051 86.8313 41.5762C86.6364 41.5337 86.4349 41.5318 86.2393 41.5705C86.0436 41.6092 85.8581 41.6878 85.6941 41.8013C85.5479 41.9185 85.4147 42.051 85.2966 42.1964C84.7955 42.8096 84.212 43.3505 83.5626 43.8038C82.1135 44.8191 80.5495 45.2986 78.873 45.2986H78.1906C78.1523 45.2978 78.1142 45.2931 78.0769 45.2845C78.0417 45.2775 78.0066 45.2705 77.9632 45.2705C77.9069 45.2423 77.8494 45.2423 77.7932 45.2423H77.7357ZM78.9023 30.4629C76.8271 30.4629 75.065 31.1956 73.6147 32.6342C72.5068 33.7339 71.8244 34.9755 71.5688 36.4141H86.292C86.0071 34.9755 85.3259 33.7339 84.245 32.6342C82.7384 31.1956 80.9763 30.4629 78.9023 30.4629ZM54.7693 30.4629C52.6953 30.4629 50.9332 31.1956 49.4548 32.6342C48.3468 33.7339 47.6645 34.9755 47.4089 36.4141H62.1309C61.8472 34.9755 61.1648 33.7339 60.085 32.6342C58.6066 31.1956 56.8445 30.4629 54.7693 30.4629Z" fill="white"/>
</svg>
  