<svg width="186" height="75" viewBox="0 0 186 75" fill="none"
  xmlns="http://www.w3.org/2000/svg">
  <g clip-path="url(#clip0_30_179)">
    <path d="M33.896 74.7943C15.206 74.7943 -1.52588e-05 58.1945 -1.52588e-05 37.7889C-1.52588e-05 17.3833 15.206 0.786141 33.896 0.786141C36.7541 0.784095 39.601 1.17533 42.3695 1.95059C42.9616 2.12527 43.467 2.54739 43.7763 3.12567C44.0856 3.70394 44.174 4.39189 44.0223 5.04072C43.8706 5.68955 43.491 6.24712 42.9657 6.59285C42.4404 6.93857 41.8115 7.04466 41.215 6.88816C36.8975 5.67672 32.3832 5.5595 28.0177 6.54546C23.6523 7.53143 19.5512 9.59446 16.0284 12.5767C12.5056 15.5589 9.65442 19.3814 7.69295 23.7515C5.73148 28.1216 4.71173 32.9237 4.71173 37.7902C4.71173 42.6567 5.73148 47.4588 7.69295 51.8289C9.65442 56.199 12.5056 60.0214 16.0284 63.0037C19.5512 65.9859 23.6523 68.049 28.0177 69.0349C32.3832 70.0209 36.8975 69.9037 41.215 68.6922C41.8115 68.5357 42.4404 68.6418 42.9657 68.9875C43.491 69.3333 43.8706 69.8908 44.0223 70.5397C44.174 71.1885 44.0856 71.8764 43.7763 72.4547C43.467 73.033 42.9616 73.4551 42.3695 73.6298C39.601 74.4051 36.7541 74.7963 33.896 74.7943Z" fill="white"/>
    <path d="M36.1772 61.8741C34.6672 61.8741 32.5038 61.7077 30.7629 60.9138C30.2005 60.646 29.7571 60.1475 29.5285 59.5258C29.3 58.9042 29.3046 58.2093 29.5414 57.5914C29.7782 56.9734 30.2282 56.482 30.7941 56.2231C31.3601 55.9643 31.9966 55.9589 32.5661 56.2081C33.3535 56.5685 34.6695 56.7752 36.1772 56.7752C40.7549 56.7176 45.1273 54.692 48.3458 51.1378C51.5642 47.5837 53.3693 42.7875 53.3693 37.7899C53.3693 32.7922 51.5642 27.9961 48.3458 24.4419C45.1273 20.8877 40.7549 18.8621 36.1772 18.8045C34.8706 18.7917 33.5679 18.9611 32.3006 19.3086C32.0056 19.3998 31.697 19.4267 31.3925 19.3877C31.088 19.3487 30.7935 19.2446 30.5258 19.0814C30.2581 18.9181 30.0225 18.6989 29.8325 18.4363C29.6424 18.1736 29.5016 17.8727 29.418 17.5506C29.3345 17.2286 29.3099 16.8917 29.3456 16.5593C29.3814 16.2268 29.4767 15.9053 29.6262 15.6131C29.7758 15.3209 29.9766 15.0637 30.2172 14.8562C30.4578 14.6488 30.7334 14.495 31.0285 14.4038C32.7096 13.9288 34.4407 13.6967 36.1772 13.7132C41.9893 13.7781 47.5432 16.3442 51.6321 20.8538C55.7211 25.3634 58.0147 31.4522 58.0147 37.7974C58.0147 44.1426 55.7211 50.2315 51.6321 54.7411C47.5432 59.2507 41.9893 61.8167 36.1772 61.8816V61.8741Z" fill="white"/>
    <path d="M74.9149 59.7652C72.4198 58.4575 70.3321 56.3775 68.9119 53.7841C67.4989 51.2015 66.7932 48.2097 66.7947 44.8088V14.7574C66.785 14.6223 66.8022 14.4865 66.8452 14.3594C66.8882 14.2322 66.9559 14.1168 67.0436 14.0209C67.1314 13.9251 67.2372 13.8512 67.3536 13.8043C67.4701 13.7574 67.5945 13.7386 67.7183 13.7492H77.5608C77.6847 13.7381 77.8093 13.7566 77.9259 13.8034C78.0425 13.8502 78.1485 13.9241 78.2363 14.02C78.3242 14.1159 78.3919 14.2315 78.4347 14.3589C78.4776 14.4862 78.4945 14.6222 78.4844 14.7574V44.8088C78.4844 46.6689 78.9731 48.1534 79.9505 49.2624C80.9225 50.3739 82.2247 50.9284 83.8409 50.9284C85.4186 50.9284 86.6954 50.3622 87.6712 49.2296C88.6456 48.098 89.1374 46.6235 89.1374 44.8088V14.7574C89.1272 14.6222 89.1442 14.4862 89.187 14.3589C89.2298 14.2315 89.2975 14.1159 89.3854 14.02C89.4733 13.9241 89.5792 13.8502 89.6958 13.8034C89.8125 13.7566 89.937 13.7381 90.0609 13.7492H99.9219C100.046 13.7386 100.17 13.7574 100.287 13.8043C100.403 13.8512 100.509 13.9251 100.597 14.0209C100.684 14.1168 100.752 14.2322 100.795 14.3594C100.838 14.4865 100.855 14.6223 100.845 14.7574V44.8088C100.845 48.2097 100.14 51.2015 98.7283 53.7841C97.3118 56.3716 95.2332 58.4506 92.7484 59.7652C90.1717 61.1716 87.2025 61.8748 83.8409 61.8748C80.4792 61.8748 77.5039 61.1716 74.9149 59.7652Z" fill="white"/>
    <path d="M134.986 60.4478L133.617 55.1549C133.534 54.9734 133.43 54.8827 133.305 54.8827H120.101C119.976 54.8827 119.87 54.9734 119.792 55.1549L118.42 60.4478C118.296 61.0376 117.942 61.33 117.36 61.33H106.71C105.964 61.33 105.694 60.9469 105.902 60.1731L119.044 14.5529C119.105 14.3039 119.245 14.0863 119.438 13.9376C119.631 13.789 119.866 13.7186 120.101 13.7388H133.305C133.541 13.7185 133.776 13.7888 133.97 13.9374C134.163 14.086 134.303 14.3037 134.365 14.5529L147.505 60.1731C147.552 60.3027 147.574 60.442 147.567 60.5814C147.567 61.0855 147.277 61.3375 146.697 61.3375H136.046C135.464 61.3224 135.108 61.0376 134.986 60.4478ZM122.779 45.073H130.565C130.814 45.073 130.897 44.9369 130.814 44.6647L126.829 29.4336C126.787 29.3 126.725 29.232 126.642 29.232C126.559 29.232 126.497 29.3 126.453 29.4336L122.528 44.6647C122.488 44.942 122.572 45.0806 122.779 45.0806V45.073Z" fill="white"/>
    <path d="M185.746 24.4103C185.654 24.5051 185.545 24.5782 185.426 24.625C185.306 24.6719 185.18 24.6914 185.053 24.6825H166.509C166.466 24.6763 166.423 24.6808 166.383 24.6957C166.343 24.7106 166.306 24.7355 166.276 24.7684C166.246 24.8013 166.223 24.8414 166.209 24.8855C166.195 24.9297 166.191 24.9766 166.197 25.0228V31.4147C166.191 31.4609 166.195 31.5081 166.208 31.5525C166.222 31.5969 166.244 31.6372 166.275 31.6702C166.305 31.7033 166.342 31.7282 166.382 31.7429C166.423 31.7576 166.466 31.7617 166.509 31.7549H178.03C178.153 31.7452 178.277 31.7646 178.394 31.8118C178.51 31.859 178.615 31.9329 178.703 32.0286C178.79 32.1242 178.858 32.2393 178.901 32.366C178.945 32.4928 178.962 32.6282 178.953 32.7631V41.6049C178.962 41.7398 178.945 41.8752 178.901 42.0019C178.858 42.1287 178.79 42.2438 178.703 42.3394C178.615 42.435 178.51 42.509 178.394 42.5562C178.277 42.6034 178.153 42.6228 178.03 42.613H166.509C166.466 42.6063 166.423 42.6104 166.382 42.6251C166.342 42.6398 166.305 42.6647 166.275 42.6977C166.244 42.7308 166.222 42.7711 166.208 42.8155C166.195 42.8599 166.191 42.9071 166.197 42.9533V60.3142C166.207 60.4493 166.19 60.5851 166.147 60.7122C166.104 60.8394 166.036 60.9548 165.948 61.0506C165.86 61.1465 165.755 61.2204 165.638 61.2673C165.522 61.3142 165.397 61.333 165.274 61.3224H155.426C155.302 61.3344 155.176 61.3168 155.058 61.2706C154.94 61.2244 154.833 61.1508 154.744 61.0549C154.655 60.959 154.586 60.8431 154.542 60.7152C154.498 60.5873 154.48 60.4505 154.489 60.3142V14.757C154.48 14.6207 154.498 14.4839 154.542 14.356C154.586 14.2281 154.655 14.1122 154.744 14.0163C154.833 13.9204 154.94 13.8468 155.058 13.8006C155.176 13.7544 155.302 13.7367 155.426 13.7488H185.06C185.185 13.7367 185.311 13.7544 185.428 13.8006C185.546 13.8468 185.653 13.9204 185.742 14.0163C185.832 14.1122 185.901 14.2281 185.945 14.356C185.989 14.4839 186.007 14.6207 185.998 14.757V23.6643C186.004 23.8007 185.985 23.9373 185.942 24.0655C185.899 24.1938 185.832 24.3111 185.746 24.4103Z" fill="white"/>
    <path d="M68.9743 74.4034C68.5507 74.1832 68.1953 73.8328 67.9515 73.3952C67.7058 72.9316 67.5813 72.4033 67.5913 71.8678V66.7513C67.5902 66.7278 67.5936 66.7042 67.6011 66.6821C67.6087 66.66 67.6202 66.6398 67.6352 66.6228C67.6506 66.6071 67.6688 66.5951 67.6887 66.5873C67.7085 66.5795 67.7296 66.5761 67.7506 66.5774H69.4245C69.4456 66.5761 69.4666 66.5795 69.4865 66.5873C69.5063 66.5951 69.5245 66.6071 69.5399 66.6228C69.5552 66.6396 69.567 66.6597 69.5746 66.6819C69.5821 66.7041 69.5853 66.7277 69.5838 66.7513V71.8603C69.5719 72.1384 69.6616 72.4104 69.8332 72.6164C69.9192 72.7111 70.0223 72.785 70.136 72.8336C70.2497 72.8823 70.3715 72.9044 70.4935 72.8987C70.6147 72.9043 70.7356 72.8812 70.848 72.8312C70.9603 72.7812 71.0615 72.7054 71.1446 72.6089C71.3162 72.4028 71.4059 72.1309 71.3939 71.8527V66.7513C71.3926 66.728 71.3956 66.7045 71.4027 66.6824C71.4098 66.6603 71.421 66.64 71.4355 66.6228C71.4679 66.5915 71.5101 66.5753 71.5533 66.5774H73.2318C73.2528 66.5761 73.2739 66.5795 73.2937 66.5873C73.3136 66.5951 73.3318 66.6071 73.3472 66.6228C73.3621 66.6398 73.3737 66.66 73.3813 66.6821C73.3888 66.7042 73.3921 66.7278 73.3911 66.7513V71.8603C73.4011 72.3958 73.2765 72.924 73.0309 73.3877C72.7883 73.8245 72.4346 74.1748 72.0127 74.3959C71.5406 74.6435 71.0217 74.7661 70.4981 74.7538C69.9721 74.7684 69.4502 74.6484 68.9743 74.4034Z" fill="white"/>
    <path d="M78.893 66.615C78.9084 66.5993 78.9266 66.5873 78.9465 66.5795C78.9663 66.5717 78.9874 66.5683 79.0084 66.5696H80.6823C80.7034 66.5683 80.7244 66.5717 80.7443 66.5795C80.7641 66.5873 80.7823 66.5993 80.7978 66.615C80.813 66.6318 80.8248 66.6519 80.8324 66.6741C80.84 66.6962 80.8431 66.7199 80.8416 66.7435V74.4889C80.843 74.5121 80.8398 74.5354 80.8323 74.5571C80.8247 74.5789 80.8131 74.5987 80.798 74.6151C80.7829 74.6316 80.7648 74.6443 80.7449 74.6526C80.7249 74.6608 80.7036 74.6643 80.6823 74.6628H79.0823C79.0441 74.6641 79.0062 74.654 78.9729 74.6336C78.9395 74.6131 78.9119 74.5832 78.893 74.5468L76.7319 70.6149C76.7181 70.5922 76.7042 70.5822 76.6904 70.5872C76.6765 70.5922 76.6696 70.6074 76.6696 70.6376L76.6904 74.4889C76.6917 74.5121 76.6885 74.5354 76.681 74.5571C76.6735 74.5789 76.6618 74.5987 76.6467 74.6151C76.6316 74.6316 76.6135 74.6443 76.5936 74.6526C76.5736 74.6608 76.5523 74.6643 76.531 74.6628H74.8479C74.8266 74.6643 74.8053 74.6608 74.7854 74.6526C74.7654 74.6443 74.7473 74.6316 74.7322 74.6151C74.7172 74.5987 74.7055 74.5789 74.698 74.5571C74.6904 74.5354 74.6872 74.5121 74.6886 74.4889V66.7511C74.6871 66.7275 74.6903 66.7038 74.6978 66.6816C74.7054 66.6595 74.7172 66.6393 74.7325 66.6225C74.7479 66.6069 74.7661 66.5948 74.786 66.587C74.8058 66.5792 74.8269 66.5759 74.8479 66.5772H76.4641C76.5024 66.5753 76.5405 66.5851 76.5739 66.6056C76.6074 66.6261 76.6349 66.6564 76.6534 66.6931L78.8053 70.6225C78.8191 70.646 78.833 70.6561 78.8468 70.6527C78.8607 70.6494 78.8676 70.6317 78.8676 70.5998V66.7511C78.863 66.7277 78.8629 66.7036 78.8673 66.6801C78.8717 66.6567 78.8804 66.6345 78.893 66.615Z" fill="white"/>
    <path d="M89.038 66.6145C89.0538 66.5987 89.0724 66.5865 89.0926 66.5787C89.1128 66.5709 89.1343 66.5677 89.1557 66.5692H90.8273C90.8488 66.5668 90.8705 66.5697 90.8908 66.5776C90.9111 66.5855 90.9295 66.5982 90.9448 66.6149C90.96 66.6315 90.9717 66.6516 90.9789 66.6738C90.9862 66.696 90.9888 66.7197 90.9866 66.7431V74.4884C90.9878 74.5114 90.9847 74.5344 90.9776 74.5561C90.9705 74.5777 90.9594 74.5976 90.9451 74.6144C90.9297 74.6311 90.9112 74.644 90.8909 74.6523C90.8706 74.6605 90.8489 74.664 90.8273 74.6623H89.2296C89.191 74.6638 89.1528 74.6538 89.119 74.6334C89.0853 74.613 89.0573 74.5829 89.038 74.5464L86.8769 70.6145C86.8631 70.5918 86.8492 70.5817 86.8353 70.5868C86.8215 70.5918 86.8146 70.6069 86.8146 70.6372L86.8353 74.4884C86.8365 74.5114 86.8334 74.5344 86.8263 74.5561C86.8192 74.5777 86.8081 74.5976 86.7938 74.6144C86.7783 74.631 86.7598 74.6438 86.7396 74.652C86.7193 74.6603 86.6976 74.6638 86.676 74.6623H85.0067C84.9855 74.6637 84.9642 74.6602 84.9443 74.652C84.9244 74.6437 84.9063 74.6309 84.8913 74.6144C84.877 74.5976 84.8659 74.5777 84.8588 74.5561C84.8516 74.5344 84.8486 74.5114 84.8497 74.4884V66.7506C84.8484 66.7273 84.8514 66.7038 84.8585 66.6817C84.8656 66.6596 84.8768 66.6394 84.8913 66.6221C84.9068 66.6065 84.925 66.5944 84.9448 66.5866C84.9646 66.5788 84.9857 66.5754 85.0067 66.5767H86.6068C86.6454 66.5746 86.6839 66.5844 86.7177 66.6049C86.7516 66.6254 86.7795 66.6558 86.7984 66.6927L88.9479 70.622C88.9618 70.6456 88.9756 70.6557 88.9895 70.6523C89.0033 70.6489 89.0103 70.6313 89.0103 70.5994V66.7506C89.006 66.7271 89.0063 66.7028 89.0111 66.6794C89.0159 66.656 89.025 66.6339 89.038 66.6145Z" fill="white"/>
    <path d="M92.3952 74.6225C92.3801 74.606 92.3684 74.5863 92.3608 74.5646C92.3533 74.5429 92.35 74.5196 92.3513 74.4964V66.7511C92.3488 66.7263 92.3514 66.7011 92.359 66.6776C92.3666 66.654 92.379 66.6326 92.3952 66.615C92.4107 66.5993 92.4289 66.5873 92.4487 66.5795C92.4685 66.5717 92.4896 66.5683 92.5106 66.5696H94.1845C94.2056 66.5683 94.2267 66.5717 94.2465 66.5795C94.2663 66.5873 94.2845 66.5993 94.3 66.615C94.3153 66.6318 94.3271 66.6519 94.3346 66.6741C94.3422 66.6962 94.3453 66.7199 94.3439 66.7435V74.4889C94.3452 74.5121 94.342 74.5354 94.3345 74.5571C94.327 74.5789 94.3153 74.5987 94.3002 74.6151C94.2851 74.6316 94.267 74.6443 94.2471 74.6526C94.2271 74.6608 94.2058 74.6643 94.1845 74.6628H92.5106C92.4899 74.6652 92.4689 74.6628 92.449 74.6559C92.4291 74.649 92.4108 74.6376 92.3952 74.6225Z" fill="white"/>
    <path d="M100.245 66.905C100.618 67.1162 100.925 67.4423 101.129 67.8426C101.343 68.2697 101.451 68.75 101.443 69.2364C101.452 69.7157 101.338 70.188 101.113 70.6C100.894 70.996 100.573 71.3132 100.19 71.5124C99.7647 71.7364 99.2972 71.8478 98.8252 71.8375H97.7054C97.6983 71.8367 97.6911 71.8377 97.6843 71.8403C97.6775 71.843 97.6714 71.8472 97.6663 71.8528C97.6612 71.8583 97.6573 71.865 97.6549 71.8724C97.6525 71.8798 97.6516 71.8877 97.6523 71.8955V74.4966C97.6535 74.5196 97.6504 74.5426 97.6433 74.5642C97.6362 74.5859 97.6251 74.6057 97.6108 74.6226C97.5958 74.6391 97.5777 74.6519 97.5578 74.6601C97.5379 74.6684 97.5166 74.6719 97.4953 74.6705H95.8214C95.7998 74.672 95.7782 74.6685 95.7579 74.6602C95.7376 74.652 95.7191 74.6392 95.7037 74.6226C95.6894 74.6057 95.6783 74.5859 95.6712 74.5642C95.664 74.5426 95.6609 74.5196 95.6621 74.4966V66.7513C95.6608 66.7279 95.6637 66.7044 95.6709 66.6824C95.678 66.6603 95.6892 66.64 95.7037 66.6227C95.7359 66.5912 95.7782 66.5749 95.8214 66.5773H98.9245C99.3827 66.5668 99.8362 66.6793 100.245 66.905ZM99.2247 69.8766C99.301 69.8022 99.3613 69.7103 99.4012 69.6075C99.4411 69.5046 99.4597 69.3934 99.4555 69.2818C99.4603 69.1675 99.4422 69.0534 99.4023 68.9476C99.3624 68.8418 99.3018 68.7468 99.2247 68.6693C99.0482 68.5092 98.8235 68.4266 98.5944 68.4374H97.7054C97.6983 68.4367 97.6911 68.4376 97.6843 68.4402C97.6775 68.4429 97.6714 68.4471 97.6663 68.4527C97.6612 68.4582 97.6573 68.4649 97.6549 68.4723C97.6525 68.4797 97.6516 68.4876 97.6523 68.4954V70.0455C97.6516 70.0533 97.6525 70.0612 97.6549 70.0686C97.6573 70.076 97.6612 70.0827 97.6663 70.0882C97.6714 70.0938 97.6775 70.098 97.6843 70.1006C97.6911 70.1033 97.6983 70.1042 97.7054 70.1035H98.5967C98.8237 70.1145 99.0465 70.0337 99.2224 69.8766H99.2247Z" fill="white"/>
    <path d="M103.893 74.4287C103.456 74.1843 103.094 73.8069 102.849 73.3424C102.595 72.8464 102.467 72.2851 102.478 71.7167V69.5441C102.468 68.9854 102.596 68.4343 102.849 67.9486C103.093 67.485 103.456 67.1092 103.893 66.8673C104.38 66.6168 104.911 66.4868 105.449 66.4868C105.987 66.4868 106.519 66.6168 107.005 66.8673C107.441 67.109 107.803 67.4827 108.049 67.9436C108.302 68.4293 108.43 68.9804 108.421 69.539V71.7116C108.432 72.28 108.303 72.8413 108.049 73.3373C107.804 73.8015 107.442 74.1786 107.005 74.4237C106.52 74.6791 105.988 74.8118 105.449 74.8118C104.91 74.8118 104.378 74.6791 103.893 74.4237V74.4287ZM106.158 72.6367C106.346 72.4026 106.443 72.0979 106.428 71.7873V69.5188C106.443 69.2082 106.346 68.9035 106.158 68.6695C106.067 68.5636 105.956 68.4804 105.833 68.4256C105.71 68.3708 105.577 68.3456 105.444 68.3519C105.315 68.3489 105.187 68.3756 105.067 68.4303C104.948 68.485 104.84 68.5665 104.752 68.6695C104.563 68.903 104.466 69.208 104.482 69.5188V71.7873C104.466 72.0981 104.563 72.4031 104.752 72.6367C104.84 72.7396 104.948 72.8211 105.067 72.8758C105.187 72.9305 105.315 72.9572 105.444 72.9542C105.578 72.9595 105.711 72.9332 105.834 72.8771C105.957 72.8209 106.068 72.7363 106.158 72.6291V72.6367Z" fill="white"/>
    <path d="M115.253 66.6151C115.267 66.6322 115.279 66.6524 115.287 66.6745C115.294 66.6966 115.297 66.7201 115.296 66.7437V68.2559C115.297 68.2791 115.294 68.3022 115.287 68.3239C115.279 68.3456 115.267 68.3654 115.253 68.3819C115.238 68.3984 115.219 68.4112 115.2 68.4195C115.18 68.4277 115.158 68.4313 115.137 68.4298H113.357C113.35 68.429 113.343 68.43 113.336 68.4326C113.329 68.4353 113.323 68.4395 113.318 68.4451C113.313 68.4506 113.309 68.4573 113.306 68.4647C113.304 68.4721 113.303 68.48 113.304 68.4878V74.4764C113.305 74.4994 113.302 74.5224 113.295 74.544C113.288 74.5657 113.277 74.5855 113.262 74.6024C113.247 74.619 113.228 74.6318 113.208 74.64C113.188 74.6483 113.166 74.6518 113.145 74.6503H111.473C111.451 74.6519 111.43 74.6485 111.409 74.6402C111.389 74.632 111.371 74.6191 111.355 74.6024C111.341 74.5855 111.33 74.5657 111.323 74.544C111.316 74.5224 111.313 74.4994 111.314 74.4764V68.508C111.314 68.5002 111.314 68.4923 111.311 68.4849C111.309 68.4775 111.305 68.4708 111.3 68.4652C111.295 68.4597 111.289 68.4554 111.282 68.4528C111.275 68.4502 111.268 68.4492 111.261 68.45H109.534C109.512 68.4514 109.491 68.4479 109.471 68.4396C109.451 68.4314 109.433 68.4186 109.418 68.4021C109.403 68.3859 109.391 68.3662 109.383 68.3444C109.376 68.3227 109.373 68.2993 109.374 68.2761V66.7638C109.373 66.7402 109.376 66.7165 109.384 66.6944C109.391 66.6722 109.403 66.6521 109.418 66.6353C109.434 66.6196 109.452 66.6076 109.472 66.5998C109.491 66.592 109.513 66.5886 109.534 66.5899H115.137C115.177 66.5816 115.219 66.5907 115.253 66.6151Z" fill="white"/>
    <path d="M121.754 68.3921C121.722 68.4234 121.68 68.4397 121.637 68.4375H118.471C118.464 68.4362 118.456 68.4368 118.449 68.4392C118.442 68.4417 118.436 68.4459 118.431 68.4516C118.426 68.4573 118.422 68.4642 118.42 68.4718C118.417 68.4795 118.417 68.4876 118.418 68.4955V69.5818C118.418 69.6221 118.434 69.6398 118.471 69.6398H120.429C120.45 69.6379 120.472 69.6411 120.492 69.6491C120.512 69.6572 120.53 69.6699 120.546 69.6865C120.561 69.703 120.572 69.723 120.58 69.7449C120.587 69.7669 120.59 69.7904 120.588 69.8137V71.326C120.59 71.3493 120.587 71.3728 120.58 71.3949C120.572 71.4169 120.561 71.4372 120.547 71.4545C120.514 71.4857 120.472 71.502 120.429 71.4999H118.471C118.464 71.4986 118.456 71.4991 118.449 71.5016C118.442 71.504 118.436 71.5083 118.431 71.5139C118.426 71.5196 118.422 71.5266 118.42 71.5342C118.417 71.5418 118.417 71.5499 118.418 71.5578V72.7601C118.418 72.8004 118.434 72.8181 118.471 72.8181H121.637C121.658 72.8161 121.679 72.8193 121.7 72.8274C121.72 72.8355 121.738 72.8482 121.753 72.8648C121.768 72.8813 121.78 72.9013 121.787 72.9232C121.795 72.9452 121.798 72.9686 121.796 72.992V74.5042C121.798 74.5276 121.795 74.551 121.787 74.573C121.78 74.595 121.768 74.6149 121.753 74.6314C121.738 74.648 121.72 74.6607 121.7 74.6688C121.679 74.6769 121.658 74.6801 121.637 74.6782H116.585C116.564 74.6796 116.542 74.6761 116.522 74.6679C116.502 74.6597 116.484 74.647 116.469 74.6305C116.454 74.614 116.442 74.5943 116.435 74.5725C116.427 74.5507 116.424 74.5275 116.426 74.5042V66.7513C116.424 66.7277 116.427 66.7041 116.435 66.6819C116.442 66.6597 116.454 66.6396 116.469 66.6228C116.485 66.6071 116.503 66.5951 116.523 66.5873C116.543 66.5795 116.564 66.5761 116.585 66.5774H121.637C121.68 66.5753 121.722 66.5915 121.754 66.6228C121.769 66.64 121.78 66.6603 121.787 66.6824C121.794 66.7045 121.797 66.728 121.796 66.7513V68.2636C121.797 68.287 121.794 68.3105 121.787 68.3326C121.78 68.3547 121.769 68.375 121.754 68.3921Z" fill="white"/>
    <path d="M126.958 74.4285C126.522 74.1835 126.16 73.8063 125.915 73.3422C125.661 72.8459 125.534 72.2847 125.545 71.7165V69.5439C125.535 68.9855 125.662 68.4344 125.915 67.9484C126.16 67.4857 126.522 67.1102 126.958 66.8672C127.44 66.6058 127.972 66.4753 128.51 66.4866C129.051 66.4747 129.587 66.6053 130.073 66.8672C130.508 67.1085 130.87 67.4823 131.114 67.9434C131.367 68.4291 131.496 68.9802 131.486 69.5389V71.7115C131.497 72.2799 131.369 72.8412 131.114 73.3372C130.87 73.8014 130.509 74.1787 130.073 74.4235C129.589 74.6915 129.052 74.8248 128.51 74.8116C127.972 74.8258 127.439 74.6941 126.958 74.4285ZM129.226 72.6365C129.413 72.4024 129.51 72.0978 129.496 71.7871V69.5187C129.51 69.208 129.413 68.9034 129.226 68.6693C129.134 68.5631 129.023 68.4797 128.9 68.4249C128.776 68.3701 128.643 68.3451 128.51 68.3517C128.38 68.3487 128.252 68.3754 128.133 68.4301C128.013 68.4849 127.906 68.5663 127.817 68.6693C127.629 68.9034 127.533 69.208 127.547 69.5187V71.7871C127.533 72.0978 127.629 72.4024 127.817 72.6365C127.906 72.7395 128.013 72.8209 128.133 72.8756C128.252 72.9304 128.38 72.9571 128.51 72.9541C128.644 72.9597 128.777 72.9336 128.9 72.8775C129.024 72.8213 129.135 72.7365 129.226 72.6289V72.6365Z" fill="white"/>
    <path d="M136.939 66.615C136.972 66.5835 137.014 66.5672 137.057 66.5696H138.731C138.752 66.5683 138.773 66.5717 138.793 66.5795C138.813 66.5873 138.831 66.5993 138.847 66.615C138.861 66.6322 138.872 66.6525 138.879 66.6746C138.887 66.6967 138.89 66.7201 138.888 66.7435V74.4889C138.889 74.5118 138.886 74.5348 138.879 74.5565C138.872 74.5781 138.861 74.598 138.847 74.6149C138.832 74.6314 138.813 74.6441 138.794 74.6524C138.774 74.6607 138.752 74.6642 138.731 74.6628H137.131C137.093 74.6643 137.054 74.6543 137.021 74.6339C136.987 74.6134 136.959 74.5834 136.939 74.5468L134.781 70.6149C134.765 70.5922 134.751 70.5822 134.737 70.5872C134.723 70.5923 134.716 70.6074 134.716 70.6376L134.737 74.4889C134.738 74.5118 134.735 74.5348 134.728 74.5565C134.721 74.5781 134.71 74.598 134.695 74.6149C134.68 74.6316 134.661 74.6444 134.641 74.6527C134.621 74.661 134.599 74.6644 134.578 74.6628H132.906C132.884 74.6644 132.863 74.661 132.842 74.6527C132.822 74.6444 132.804 74.6316 132.788 74.6149C132.774 74.598 132.763 74.5781 132.756 74.5565C132.749 74.5348 132.745 74.5118 132.747 74.4889V66.7511C132.744 66.7277 132.747 66.704 132.754 66.6818C132.762 66.6597 132.773 66.6395 132.789 66.6229C132.804 66.6062 132.822 66.5935 132.843 66.5856C132.863 66.5777 132.885 66.5748 132.906 66.5772H134.504C134.542 66.5748 134.581 66.5844 134.615 66.6049C134.649 66.6254 134.677 66.656 134.695 66.6931L136.845 70.6225C136.859 70.646 136.873 70.6561 136.886 70.6527C136.9 70.6527 136.909 70.6301 136.909 70.5998V66.7511C136.906 66.7274 136.906 66.703 136.911 66.6796C136.917 66.6562 136.926 66.6341 136.939 66.615Z" fill="white"/>
    <path d="M142.935 74.6227C142.92 74.6063 142.909 74.5865 142.901 74.5648C142.894 74.5431 142.89 74.5198 142.892 74.4966V66.7513C142.89 66.7277 142.893 66.704 142.901 66.6819C142.908 66.6597 142.92 66.6395 142.935 66.6227C142.951 66.6071 142.969 66.595 142.989 66.5872C143.009 66.5794 143.03 66.5761 143.051 66.5774H145.773C146.295 66.5666 146.812 66.6766 147.292 66.9C147.706 67.0921 148.061 67.4096 148.315 67.8149C148.558 68.2194 148.684 68.6947 148.675 69.1785V72.0695C148.684 72.5532 148.558 73.0285 148.315 73.433C148.062 73.8383 147.707 74.1551 147.292 74.3454C146.813 74.5707 146.295 74.6815 145.773 74.6706H143.051C143.03 74.672 143.008 74.6684 142.988 74.6602C142.969 74.6519 142.95 74.6391 142.935 74.6227ZM144.937 72.8079H145.847C145.961 72.8106 146.073 72.7844 146.176 72.7315C146.279 72.6786 146.37 72.6004 146.44 72.503C146.599 72.2718 146.681 71.9879 146.671 71.6989V69.549C146.684 69.2595 146.602 68.9744 146.44 68.745C146.366 68.6454 146.272 68.5659 146.165 68.5125C146.058 68.4592 145.941 68.4335 145.824 68.4375H144.926C144.918 68.4362 144.911 68.4368 144.904 68.4392C144.897 68.4417 144.891 68.4459 144.885 68.4516C144.88 68.4572 144.876 68.4642 144.874 68.4718C144.872 68.4794 144.871 68.4875 144.873 68.4954V72.75C144.884 72.7903 144.9 72.8079 144.937 72.8079Z" fill="white"/>
    <path d="M155.295 68.3921C155.262 68.4236 155.22 68.4399 155.177 68.4375H152.012C152.004 68.4362 151.997 68.4368 151.99 68.4392C151.983 68.4417 151.977 68.4459 151.971 68.4516C151.966 68.4573 151.962 68.4642 151.96 68.4718C151.958 68.4795 151.957 68.4876 151.958 68.4955V69.5818C151.958 69.6221 151.975 69.6398 152.012 69.6398H153.969C153.991 69.6383 154.013 69.6418 154.033 69.6501C154.053 69.6583 154.072 69.6711 154.087 69.6877C154.101 69.7045 154.113 69.7244 154.12 69.7461C154.127 69.7677 154.13 69.7907 154.129 69.8137V71.326C154.13 71.3493 154.127 71.3728 154.12 71.3949C154.113 71.4169 154.102 71.4372 154.087 71.4545C154.055 71.486 154.013 71.5023 153.969 71.4999H152.012C152.004 71.4986 151.997 71.4991 151.99 71.5016C151.983 71.504 151.977 71.5083 151.971 71.5139C151.966 71.5196 151.962 71.5266 151.96 71.5342C151.958 71.5418 151.957 71.5499 151.958 71.5578V72.7601C151.958 72.8004 151.975 72.8181 152.012 72.8181H155.177C155.199 72.8166 155.22 72.8201 155.24 72.8284C155.261 72.8366 155.279 72.8494 155.295 72.8659C155.309 72.8828 155.32 72.9027 155.327 72.9243C155.334 72.946 155.337 72.969 155.336 72.992V74.5042C155.337 74.5272 155.334 74.5502 155.327 74.5719C155.32 74.5935 155.309 74.6134 155.295 74.6303C155.279 74.6468 155.261 74.6596 155.24 74.6679C155.22 74.6761 155.199 74.6796 155.177 74.6782H150.116C150.095 74.6796 150.073 74.676 150.054 74.6678C150.034 74.6595 150.016 74.6467 150.001 74.6303C149.986 74.6135 149.974 74.5937 149.967 74.5721C149.959 74.5504 149.956 74.5274 149.957 74.5042V66.7513C149.956 66.7278 149.959 66.7042 149.966 66.6821C149.974 66.66 149.986 66.6398 150.001 66.6228C150.016 66.6071 150.034 66.5951 150.054 66.5873C150.074 66.5795 150.095 66.5761 150.116 66.5774H155.168C155.211 66.575 155.253 66.5913 155.285 66.6228C155.3 66.64 155.311 66.6603 155.318 66.6824C155.325 66.7045 155.328 66.728 155.327 66.7513V68.2636C155.33 68.2863 155.328 68.3094 155.323 68.3314C155.317 68.3535 155.308 68.3742 155.295 68.3921Z" fill="white"/>
    <path d="M161.457 66.5772H163.11C163.131 66.5759 163.152 66.5793 163.172 66.5871C163.192 66.5949 163.21 66.6069 163.226 66.6226C163.241 66.6394 163.253 66.6595 163.26 66.6817C163.268 66.7038 163.271 66.7275 163.269 66.7511V74.4965C163.271 74.5197 163.268 74.543 163.26 74.5647C163.253 74.5865 163.241 74.6063 163.226 74.6227C163.211 74.6392 163.193 74.6519 163.173 74.6602C163.153 74.6684 163.131 74.6719 163.11 74.6704H161.429C161.408 74.6718 161.387 74.6683 161.367 74.66C161.347 74.6517 161.329 74.639 161.314 74.6225C161.299 74.6057 161.288 74.5859 161.28 74.5643C161.273 74.5427 161.269 74.5196 161.27 74.4965V70.2999C161.27 70.2697 161.263 70.252 161.249 70.247C161.235 70.247 161.222 70.247 161.208 70.2772L160.506 71.5601C160.487 71.5968 160.459 71.6271 160.425 71.6475C160.391 71.668 160.353 71.6779 160.314 71.6761H159.511C159.472 71.6776 159.434 71.6676 159.4 71.6472C159.366 71.6267 159.338 71.5966 159.319 71.5601L158.599 70.2772C158.585 70.252 158.571 70.2445 158.557 70.247C158.543 70.2495 158.536 70.2697 158.536 70.2999V74.4965C158.538 74.5197 158.534 74.543 158.527 74.5647C158.519 74.5865 158.508 74.6063 158.493 74.6227C158.478 74.6392 158.46 74.6519 158.44 74.6602C158.42 74.6684 158.398 74.6719 158.377 74.6704H156.703C156.682 74.6718 156.661 74.6683 156.641 74.66C156.621 74.6517 156.603 74.639 156.588 74.6225C156.573 74.6057 156.562 74.5859 156.554 74.5643C156.547 74.5427 156.543 74.5196 156.544 74.4965V66.7511C156.541 66.7269 156.543 66.7022 156.549 66.6788C156.555 66.6553 156.566 66.6336 156.581 66.615C156.596 66.5994 156.614 66.5873 156.634 66.5795C156.654 66.5717 156.675 66.5684 156.696 66.5696H158.349C158.388 66.5674 158.426 66.5772 158.459 66.5977C158.493 66.6182 158.52 66.6487 158.539 66.6856L159.873 69.0321C159.896 69.0775 159.917 69.0775 159.938 69.0321L161.272 66.6856C161.291 66.6511 161.319 66.6228 161.351 66.6037C161.384 66.5847 161.42 66.5755 161.457 66.5772Z" fill="white"/>
    <path d="M169.402 74.5193L169.171 73.617C169.167 73.6047 169.16 73.5938 169.15 73.5858C169.141 73.5777 169.13 73.5728 169.118 73.5716H166.871C166.85 73.5716 166.834 73.5867 166.818 73.617L166.587 74.5193C166.581 74.565 166.559 74.6063 166.525 74.6345C166.491 74.6627 166.449 74.6756 166.407 74.6705H164.592C164.465 74.6705 164.418 74.605 164.454 74.4739L166.689 66.716C166.7 66.6739 166.724 66.6372 166.756 66.612C166.789 66.5867 166.829 66.5745 166.869 66.5774H169.115C169.156 66.5735 169.196 66.5854 169.229 66.6107C169.262 66.6361 169.285 66.6734 169.295 66.716L171.53 74.4739C171.535 74.4964 171.535 74.5196 171.53 74.542C171.53 74.6277 171.482 74.6705 171.383 74.6705H169.573C169.532 74.6729 169.492 74.6588 169.46 74.6309C169.429 74.6029 169.408 74.5632 169.402 74.5193ZM167.324 71.9056H168.647C168.688 71.9056 168.702 71.8829 168.688 71.8375L168.012 69.2465C168.012 69.2238 167.993 69.2138 167.979 69.2138C167.966 69.2138 167.954 69.2138 167.947 69.2465L167.28 71.8375C167.275 71.8829 167.289 71.9081 167.326 71.9081L167.324 71.9056Z" fill="white"/>
    <path d="M176.91 66.615C176.926 66.5993 176.944 66.5873 176.964 66.5795C176.983 66.5717 177.005 66.5683 177.026 66.5696H178.699C178.743 66.5672 178.785 66.5835 178.817 66.615C178.832 66.6322 178.843 66.6525 178.85 66.6746C178.857 66.6967 178.86 66.7201 178.859 66.7435V74.4889C178.86 74.5118 178.857 74.5348 178.85 74.5565C178.843 74.5781 178.832 74.598 178.817 74.6149C178.802 74.6314 178.783 74.6442 178.763 74.6525C178.743 74.6607 178.721 74.6642 178.699 74.6628H177.099C177.061 74.6641 177.023 74.654 176.99 74.6336C176.957 74.6131 176.929 74.5832 176.91 74.5468L174.749 70.6149C174.735 70.5922 174.721 70.5822 174.708 70.5872C174.694 70.5922 174.687 70.6074 174.687 70.6376L174.708 74.4889C174.709 74.5121 174.706 74.5354 174.698 74.5571C174.691 74.5789 174.679 74.5987 174.664 74.6151C174.649 74.6316 174.631 74.6443 174.611 74.6526C174.591 74.6608 174.569 74.6643 174.548 74.6628H172.874C172.853 74.6642 172.832 74.6607 172.812 74.6524C172.792 74.6441 172.774 74.6314 172.759 74.6149C172.744 74.5981 172.733 74.5784 172.725 74.5567C172.718 74.5351 172.714 74.512 172.715 74.4889V66.7511C172.714 66.7275 172.717 66.704 172.725 66.6819C172.732 66.6598 172.744 66.6396 172.759 66.6225C172.774 66.6069 172.793 66.5948 172.812 66.587C172.832 66.5792 172.853 66.5759 172.874 66.5772H174.474C174.513 66.575 174.551 66.5847 174.584 66.6052C174.618 66.6257 174.645 66.6562 174.664 66.6931L176.815 70.6225C176.829 70.646 176.843 70.6561 176.857 70.6527C176.871 70.6494 176.878 70.6317 176.878 70.5998V66.7511C176.874 66.7272 176.875 66.7027 176.881 66.6793C176.886 66.6559 176.896 66.634 176.91 66.615Z" fill="white"/>
    <path d="M180.256 74.6223C180.241 74.6054 180.23 74.5855 180.223 74.5639C180.216 74.5422 180.213 74.5192 180.214 74.4962V66.7509C180.212 66.7275 180.214 66.7038 180.222 66.6816C180.229 66.6595 180.241 66.6393 180.256 66.6227C180.271 66.606 180.29 66.5933 180.31 66.5854C180.33 66.5775 180.352 66.5746 180.373 66.577H183.095C183.617 66.5667 184.135 66.6766 184.615 66.8996C185.029 67.0917 185.384 67.4092 185.637 67.8145C185.88 68.2195 186.005 68.6945 185.998 69.1781V72.069C186.005 72.5527 185.88 73.0277 185.637 73.4326C185.384 73.8379 185.029 74.1547 184.615 74.345C184.135 74.5701 183.617 74.6809 183.095 74.6701H180.373C180.352 74.6718 180.33 74.6683 180.31 74.6601C180.289 74.6518 180.271 74.6389 180.256 74.6223ZM182.257 72.8075H183.169C183.283 72.81 183.396 72.7838 183.499 72.7309C183.602 72.678 183.692 72.5998 183.763 72.5026C183.922 72.2714 184.003 71.9875 183.994 71.6985V69.5486C184.007 69.2592 183.925 68.9741 183.763 68.7446C183.689 68.6451 183.595 68.5655 183.489 68.5122C183.382 68.4588 183.266 68.4331 183.149 68.4371H182.248C182.241 68.4363 182.234 68.4372 182.227 68.4399C182.22 68.4425 182.214 68.4468 182.209 68.4523C182.204 68.4578 182.2 68.4646 182.198 68.472C182.195 68.4793 182.194 68.4872 182.195 68.495V72.7496C182.193 72.7585 182.194 72.7679 182.196 72.7767C182.199 72.7854 182.204 72.7932 182.21 72.7992C182.216 72.8052 182.224 72.8091 182.233 72.8106C182.241 72.812 182.249 72.811 182.257 72.8075Z" fill="white"/>
  </g>
  <defs>
    <clipPath id="clip0_30_179">
      <rect width="186" height="74.0268" fill="white" transform="translate(0 0.786133)"/>
    </clipPath>
  </defs>
</svg>
  