<svg xmlns="http://www.w3.org/2000/svg" width="164" height="35" viewBox="0 0 164 35" fill="none">
  <path d="M52.1056 11.2753C52.0502 11.2692 51.9941 11.2657 51.9371 11.2657C51.0855 11.2657 50.395 11.956 50.395 12.8077V19.1291C50.395 21.0722 48.8252 22.653 46.8958 22.653C44.9664 22.653 43.3967 21.0722 43.3967 19.1291V12.8077C43.3967 11.956 42.7062 11.2657 41.8545 11.2657C41.003 11.2657 40.3125 11.956 40.3125 12.8077V19.1291C40.3125 22.7727 43.2659 25.737 46.8958 25.737C48.246 25.737 49.5022 25.3264 50.5481 24.6237C50.7968 25.1414 51.3244 25.4998 51.9371 25.4998C52.7887 25.4998 53.4791 24.8092 53.4791 23.9573V12.8077C53.4791 12.0131 52.878 11.3593 52.1056 11.2753" fill="white"/>
  <path d="M63.2962 11.0571C61.946 11.0571 60.6898 11.4678 59.6441 12.1705C59.3953 11.6527 58.8676 11.2944 58.2549 11.2944C57.4034 11.2944 56.7129 11.985 56.7129 12.8369V23.9865C56.7129 24.7811 57.3142 25.4348 58.0865 25.5189C58.1419 25.5249 58.198 25.5285 58.2549 25.5285C59.1066 25.5285 59.7971 24.8381 59.7971 23.9865V17.6651C59.7971 15.722 61.3668 14.1412 63.2962 14.1412C65.2256 14.1412 66.7954 15.722 66.7954 17.6651V23.9865C66.7954 24.8381 67.4859 25.5285 68.3375 25.5285C69.1891 25.5285 69.8795 24.8381 69.8795 23.9865V17.6651C69.8795 14.0215 66.9262 11.0571 63.2962 11.0571Z" fill="white"/>
  <path d="M116.724 11.846C115.771 11.3298 114.691 11.0571 113.601 11.0571C112.255 11.0571 111.003 11.4646 109.96 12.1618C109.71 11.6487 109.184 11.2944 108.575 11.2944C107.724 11.2944 107.033 11.9849 107.033 12.8368V23.986C107.033 24.8378 107.724 25.5285 108.575 25.5285C109.427 25.5285 110.117 24.8378 110.117 23.986V17.6247C110.117 15.7039 111.68 14.1412 113.601 14.1412C114.188 14.1412 114.745 14.2815 115.256 14.5582C116.005 14.9637 116.941 14.6851 117.346 13.9363C117.752 13.1874 117.473 12.2515 116.724 11.846Z" fill="white"/>
  <path d="M79.9148 22.6817C77.5602 22.6817 75.6446 20.7661 75.6446 18.4114C75.6446 16.0568 77.5602 14.1412 79.9148 14.1412C82.2695 14.1412 84.1851 16.0568 84.1851 18.4114C84.1851 20.7661 82.2695 22.6817 79.9148 22.6817ZM79.9148 11.0571C75.8596 11.0571 72.5605 14.3563 72.5605 18.4114C72.5605 22.4666 75.8596 25.7657 79.9148 25.7657C83.97 25.7657 87.2692 22.4666 87.2692 18.4114C87.2692 14.3563 83.97 11.0571 79.9148 11.0571Z" fill="white"/>
  <path d="M97.1512 22.6807C94.7965 22.6807 92.881 20.7652 92.881 18.4105C92.881 16.0558 94.7965 14.1403 97.1512 14.1403C99.5058 14.1403 101.421 16.0558 101.421 18.4105C101.421 20.7652 99.5058 22.6807 97.1512 22.6807ZM97.1512 11.0562C95.5597 11.0562 94.0859 11.566 92.881 12.4286V5.71721C92.881 4.86626 92.1906 4.17636 91.3389 4.17636C90.4872 4.17636 89.7969 4.86626 89.7969 5.71721V23.9867C89.7969 24.8377 90.4872 25.5276 91.3389 25.5276C92.0619 25.5276 92.667 25.0297 92.8338 24.3587C94.0472 25.2419 95.5389 25.7648 97.1512 25.7648C101.206 25.7648 104.505 22.4657 104.505 18.4105C104.505 14.3553 101.206 11.0562 97.1512 11.0562Z" fill="white"/>
  <path d="M126.065 22.6817C123.711 22.6817 121.795 20.7661 121.795 18.4114C121.795 16.0568 123.711 14.1412 126.065 14.1412C128.42 14.1412 130.335 16.0568 130.335 18.4114C130.335 20.7661 128.42 22.6817 126.065 22.6817ZM126.065 11.0571C122.01 11.0571 118.711 14.3563 118.711 18.4114C118.711 22.4666 122.01 25.7657 126.065 25.7657C127.678 25.7657 129.169 25.2429 130.383 24.3595C130.55 25.0307 131.155 25.5285 131.877 25.5285C132.729 25.5285 133.42 24.8379 133.42 23.986V18.5501C133.42 18.5344 133.418 18.5193 133.417 18.5037C133.418 18.4729 133.42 18.4424 133.42 18.4114C133.42 14.3563 130.12 11.0571 126.065 11.0571Z" fill="white"/>
  <path d="M156.645 22.6817C154.291 22.6817 152.375 20.7661 152.375 18.4114C152.375 16.0568 154.291 14.1412 156.645 14.1412C159 14.1412 160.916 16.0568 160.916 18.4114C160.916 20.7661 159 22.6817 156.645 22.6817ZM156.645 11.0571C152.59 11.0571 149.291 14.3563 149.291 18.4114C149.291 22.4666 152.59 25.7657 156.645 25.7657C160.7 25.7657 164 22.4666 164 18.4114C164 14.3563 160.7 11.0571 156.645 11.0571Z" fill="white"/>
  <path d="M147.178 11.2084C146.403 10.8544 145.488 11.1953 145.134 11.9697L141.332 20.2872L137.5 11.9551C137.144 11.1815 136.228 10.8427 135.455 11.1986C134.681 11.5544 134.342 12.4702 134.698 13.2439L139.936 24.6308C140.187 25.178 140.734 25.5285 141.336 25.5285H141.338C141.941 25.5278 142.488 25.1759 142.739 24.6276L147.939 13.252C148.293 12.4774 147.952 11.5625 147.178 11.2084Z" fill="white"/>
  <path d="M8.36255 28.4741C8.36255 28.1236 8.39506 27.781 8.45387 27.4474L8.45234 27.4456C8.45672 27.4223 8.46219 27.3985 8.4668 27.3752C8.4775 27.3188 8.48889 27.2628 8.50122 27.2071C8.50583 27.1858 8.51107 27.1644 8.51605 27.1429C8.5292 27.086 8.54227 27.029 8.55707 26.9729C9.23831 24.2802 11.5414 20.9332 14.2341 18.0143C11.4983 15.0489 8.36041 12.5254 6.11225 11.5803C6.10419 11.5768 6.09613 11.5733 6.08805 11.5698C6.08224 11.5674 6.07632 11.5647 6.07051 11.5624L6.0698 11.5627C5.60872 11.3716 5.10342 11.2657 4.57331 11.2657C2.8294 11.2657 1.35247 12.4064 0.846332 13.9822L0.845735 13.9824C0.843742 13.9886 0.84195 13.9947 0.840042 14.0008C0.836626 14.0118 0.83318 14.0228 0.829735 14.034C0.268427 15.8053 0 17.6517 0 20.1116C0 27.9601 6.35198 34.3248 14.1955 34.3457L14.1963 34.3448C14.209 34.3449 14.2214 34.3457 14.2341 34.3457C10.9914 34.3457 8.36255 31.7169 8.36255 28.4741Z" fill="white"/>
  <path d="M27.5821 14.034C27.5787 14.0228 27.5754 14.0118 27.5718 14.0008C27.5699 13.9946 27.5681 13.9886 27.5662 13.9824L27.5655 13.9822C27.0594 12.4064 25.5826 11.2657 23.8387 11.2657C23.3084 11.2657 22.8032 11.3716 22.3421 11.5627L22.3413 11.5624C22.3355 11.5647 22.3296 11.5675 22.3238 11.5698C22.3157 11.5733 22.3078 11.5768 22.2997 11.5803C20.0514 12.5254 16.9135 15.0489 14.1777 18.0143C16.8705 20.933 19.1735 24.2799 19.8548 26.9727C19.8697 27.0292 19.8829 27.0864 19.8961 27.1436C19.9009 27.1646 19.906 27.1858 19.9106 27.2068C19.923 27.2627 19.9345 27.3189 19.9452 27.3754C19.9498 27.3986 19.9552 27.4225 19.9595 27.4456L19.9581 27.4474C20.0169 27.7811 20.0493 28.1236 20.0493 28.4741C20.0493 31.7169 17.4205 34.3457 14.1777 34.3457C14.1905 34.3457 14.203 34.3448 14.2157 34.3448L14.2165 34.3457C22.06 34.3248 28.4119 27.9601 28.4119 20.1116C28.4119 17.6517 28.1435 15.8053 27.5821 14.034Z" fill="white"/>
  <path d="M20.083 28.5018C20.083 28.1513 20.0505 27.8087 19.9917 27.4751L19.9932 27.4733C19.9888 27.4502 19.9833 27.4264 19.9789 27.403C19.968 27.3466 19.9566 27.2904 19.9443 27.2345C19.9397 27.2135 19.9346 27.1923 19.9297 27.1713C19.9164 27.1141 19.9034 27.0568 19.8885 27.0004C19.2072 24.3076 16.904 20.9607 14.2114 18.042C11.5187 20.9608 9.21558 24.3078 8.53437 27.0006C8.51954 27.0567 8.5065 27.1136 8.49335 27.1706C8.48837 27.192 8.48313 27.2135 8.47852 27.2347C8.46616 27.2905 8.45477 27.3465 8.4441 27.4028C8.43949 27.4262 8.43402 27.45 8.42963 27.4733L8.43117 27.4751C8.37235 27.8087 8.33984 28.1513 8.33984 28.5018C8.33984 31.7446 10.9687 34.3734 14.2114 34.3734C17.4542 34.3734 20.083 31.7446 20.083 28.5018Z" fill="white"/>
  <path d="M3.91439 0.84021C6.07622 0.84021 7.82878 2.59277 7.82878 4.7546C7.82878 6.9164 6.07619 8.66899 3.91439 8.66899C1.75257 8.66899 0 6.9164 0 4.7546C0 2.59277 1.75259 0.84021 3.91439 0.84021Z" fill="white"/>
  <path d="M24.4867 0.84024C26.6485 0.84024 28.401 2.59281 28.401 4.75463C28.401 6.91643 26.6485 8.66902 24.4867 8.66902C22.3248 8.66902 20.5723 6.91643 20.5723 4.75463C20.5723 2.59281 22.3249 0.84024 24.4867 0.84024Z" fill="white"/>
</svg>